<?xml version="1.0" standalone="no"?>
<!DOCTYPE svg PUBLIC "-//W3C//DTD SVG 20010904//EN"
 "http://www.w3.org/TR/2001/REC-SVG-20010904/DTD/svg10.dtd">
<svg version="1.0" xmlns="http://www.w3.org/2000/svg"
 width="600.000000pt" height="600.000000pt" viewBox="0 0 600.000000 600.000000"
 preserveAspectRatio="xMidYMid meet">
<metadata>
Created by potrace 1.11, written by Peter Selinger 2001-2013
</metadata>
<g transform="translate(0.000000,600.000000) scale(0.100000,-0.100000)"
fill="#000000" stroke="none">
<path d="M4231 5978 c-35 -13 -50 -38 -45 -80 3 -36 2 -38 -36 -48 -22 -6 -40
-15 -40 -21 0 -6 -4 -7 -10 -4 -6 3 -7 -1 -4 -10 4 -9 19 -22 35 -30 16 -9 33
-25 40 -36 8 -16 17 -20 37 -16 28 5 54 -1 47 -12 -2 -4 -7 -30 -11 -57 -3
-27 -9 -53 -12 -58 -3 -5 1 -6 9 -2 8 4 3 -3 -11 -15 -17 -15 -19 -20 -7 -16
19 7 24 -9 5 -16 -10 -4 -10 -6 0 -6 17 -1 15 -28 -3 -35 -8 -3 -14 -2 -13 2
4 14 -13 52 -23 52 -6 0 -7 5 -4 10 4 6 3 10 -2 9 -14 -2 -53 13 -53 21 0 4
-14 7 -30 6 -18 -1 -28 -6 -26 -12 3 -7 -6 -10 -21 -8 -33 3 -37 9 -16 25 15
13 16 12 9 -6 -6 -16 -5 -17 5 -8 10 10 9 15 -1 28 -8 9 -8 15 -2 15 6 0 13
-4 17 -10 3 -5 13 -6 22 -3 12 5 14 3 8 -7 -5 -9 -4 -11 4 -6 15 9 3 29 -14
22 -7 -2 -17 0 -23 6 -12 12 -35 1 -27 -12 3 -5 -2 -13 -11 -18 -16 -9 -16
-11 0 -33 9 -13 19 -22 23 -19 4 3 10 -8 14 -24 5 -16 14 -33 21 -39 9 -6 8
-7 -4 -3 -10 3 -18 3 -18 0 0 -6 53 -28 63 -26 4 1 7 -2 7 -8 0 -5 6 -7 14 -4
8 3 17 0 22 -7 5 -8 3 -10 -6 -4 -9 6 -11 4 -5 -5 6 -10 11 -9 21 5 12 16 14
15 20 -9 3 -15 4 -30 0 -33 -3 -4 -6 5 -7 18 0 13 -3 18 -6 12 -5 -15 -33 -18
-33 -4 0 5 -7 12 -16 15 -9 4 -13 2 -8 -5 4 -6 0 -15 -7 -20 -21 -13 -29 -11
-29 9 0 14 -2 15 -10 2 -7 -11 -10 -11 -10 -2 0 7 -4 11 -9 8 -5 -3 -20 4 -35
15 -14 11 -31 17 -38 14 -7 -4 -5 0 5 8 24 20 22 32 -10 57 -16 12 -21 19 -11
17 9 -3 24 0 35 8 16 12 16 14 1 20 -17 7 -18 25 -2 46 6 8 14 21 18 29 4 8
-2 3 -14 -12 -29 -37 -47 -36 -21 1 12 16 21 33 21 38 0 4 -4 2 -9 -6 -11 -17
-41 -24 -41 -10 0 5 7 12 15 15 8 4 15 11 15 17 0 6 -10 2 -21 -10 -20 -20
-19 -50 2 -38 5 4 9 2 9 -3 0 -16 -13 -22 -26 -11 -8 6 -28 12 -46 14 -32 2
-135 44 -111 45 17 0 4 30 -13 30 -8 0 -14 10 -14 23 0 19 -5 24 -29 24 -19 0
-31 -6 -34 -16 -5 -20 2 -43 12 -37 4 3 8 -1 8 -9 0 -8 -5 -16 -12 -18 -10 -5
-14 10 -15 63 l-1 25 -10 -23 c-5 -13 -6 -29 -2 -34 4 -7 1 -8 -6 -4 -7 5 -10
14 -7 22 3 8 1 14 -4 14 -6 0 -10 -5 -10 -10 0 -7 -6 -7 -18 -1 -31 17 -74 21
-69 8 2 -7 13 -11 23 -9 16 2 17 1 4 -8 -12 -10 -10 -11 9 -6 17 3 21 2 13 -6
-6 -6 -18 -7 -29 -3 -10 5 -24 7 -30 6 -7 -1 -11 4 -9 11 1 7 1 10 -1 5 -3 -4
-10 -4 -15 -1 -7 5 -8 2 -3 -6 6 -9 0 -10 -26 -5 -30 7 -32 6 -20 -9 12 -14
12 -16 -2 -11 -8 4 -18 1 -23 -6 -4 -7 -3 -10 4 -5 6 3 13 2 17 -4 3 -5 0 -10
-8 -10 -22 0 -28 -28 -9 -40 13 -8 2 -9 -43 -5 -32 4 -62 8 -65 10 -8 4 -168
24 -255 30 -27 2 -108 4 -178 4 -72 1 -126 5 -123 10 3 5 -1 14 -9 21 -12 10
-13 8 -10 -9 2 -12 1 -21 -3 -21 -4 0 -38 -5 -77 -10 -180 -23 -192 -23 -198
1 -3 11 -10 18 -16 15 -6 -4 -8 2 -6 14 2 13 -4 25 -16 33 -10 6 -19 19 -19
28 0 9 -7 20 -16 23 -8 3 -12 2 -9 -4 10 -16 -7 -11 -19 5 -10 13 -15 13 -48
-2 -21 -9 -38 -21 -38 -25 0 -4 -7 -8 -15 -8 -13 0 -20 -18 -16 -43 0 -4 -2
-6 -6 -6 -26 4 -39 -14 -58 -78 -3 -13 -12 -23 -18 -23 -9 0 -9 -2 0 -8 8 -5
-37 -25 -114 -51 -70 -24 -181 -68 -248 -98 -129 -59 -130 -59 -158 -48 -15 6
-18 4 -15 -13 2 -18 -10 -30 -64 -61 -38 -22 -68 -35 -68 -30 0 6 -5 7 -10 4
-6 -4 -8 -10 -6 -14 3 -4 -25 -27 -62 -52 -80 -53 -83 -54 -77 -37 9 25 -11
41 -44 33 -34 -7 -42 -34 -16 -55 8 -7 15 -16 15 -20 0 -4 -28 -29 -62 -56
-35 -27 -106 -90 -158 -140 -88 -86 -96 -90 -108 -73 -17 25 -49 24 -62 -1
-14 -25 -4 -60 16 -60 20 0 10 -16 -49 -82 -149 -164 -319 -447 -419 -693 -22
-55 -42 -102 -44 -104 -2 -2 -11 0 -21 4 -39 17 -48 13 -45 -16 1 -4 -12 -6
-28 -5 -27 1 -33 16 -6 16 8 0 19 7 26 15 7 8 16 12 21 9 5 -3 9 -1 9 5 0 9
-66 10 -72 0 -21 -33 -27 -49 -18 -49 5 0 10 -5 10 -11 0 -5 -4 -8 -9 -5 -8 5
-8 -22 -1 -31 2 -2 3 -6 4 -10 4 -20 27 -51 41 -57 9 -3 13 -2 10 4 -3 6 -1
10 5 10 6 0 8 5 4 11 -5 8 -8 8 -14 0 -10 -17 -31 35 -23 56 6 16 5 17 -12 3
-17 -14 -17 -14 -4 7 9 16 16 19 21 10 6 -9 8 -8 8 3 0 13 1 13 10 0 8 -12 12
-13 19 -2 6 11 10 10 15 -3 4 -11 12 -15 23 -11 15 6 16 5 1 -11 -8 -10 -13
-24 -11 -30 3 -8 -3 -13 -14 -13 -15 0 -16 -2 -3 -10 10 -6 11 -10 3 -10 -7 0
-13 -5 -13 -11 0 -5 4 -8 9 -4 12 7 10 -2 -19 -115 -23 -89 -35 -114 -53 -103
-6 3 -7 1 -3 -6 4 -6 11 -9 15 -7 4 3 8 -2 8 -10 0 -9 -6 -13 -16 -9 -13 4
-13 2 1 -8 23 -18 11 -29 -16 -16 -17 8 -16 6 4 -10 16 -13 20 -21 10 -21 -10
0 -11 -3 -3 -11 7 -7 7 -26 1 -57 -30 -162 -32 -604 -3 -757 35 -188 38 -228
15 -253 -11 -11 -16 -23 -12 -27 4 -4 -4 -2 -18 5 -23 12 -24 12 -11 -3 9 -11
10 -17 2 -17 -20 0 -11 -36 12 -46 12 -6 16 -9 8 -7 -11 3 -12 1 -1 -12 7 -8
9 -15 4 -15 -5 -1 2 -7 16 -14 14 -8 29 -12 34 -9 5 4 6 1 2 -5 -7 -11 6 -17
27 -13 5 1 6 -3 2 -9 -3 -5 -2 -10 3 -10 9 0 41 -64 45 -90 2 -8 7 -22 12 -30
7 -12 6 -13 -7 -3 -8 7 -18 10 -21 7 -4 -4 -5 3 -2 14 2 11 -3 23 -10 26 -16
6 -26 -16 -16 -33 5 -7 6 -28 4 -48 -2 -19 0 -32 5 -29 4 2 13 -4 20 -15 9
-14 9 -18 0 -17 -6 2 -12 -10 -13 -27 -3 -44 -4 -45 -21 -45 -8 0 -13 -4 -9
-9 3 -5 0 -13 -7 -17 -7 -4 -10 -4 -6 0 4 5 2 14 -5 20 -8 10 -15 9 -29 -3
-16 -13 -16 -18 -3 -37 13 -20 13 -21 -5 -17 -12 3 -17 10 -13 17 4 6 -1 5
-10 -2 -9 -8 -22 -11 -29 -7 -7 4 -5 0 5 -8 20 -16 23 -32 5 -21 -10 5 -10 4
-1 -6 12 -13 6 -43 -7 -35 -5 3 -12 0 -16 -6 -4 -7 -3 -9 3 -6 11 7 28 -22 18
-31 -3 -3 -5 0 -5 6 0 7 -4 12 -10 12 -16 0 -12 -18 8 -38 17 -17 20 -18 30
-3 10 13 11 13 9 1 -1 -8 -10 -21 -20 -28 -13 -10 -15 -17 -7 -33 6 -10 8 -19
4 -19 -3 0 1 -12 11 -26 12 -19 14 -29 5 -39 -8 -10 -8 -14 2 -17 8 -3 6 -7
-6 -11 -10 -4 -15 -3 -11 3 3 6 2 10 -3 10 -6 0 -9 11 -8 24 0 13 5 22 10 18
5 -3 6 0 2 6 -4 6 -14 8 -23 5 -10 -4 -14 -2 -9 5 3 6 1 14 -5 18 -8 4 -9 3
-5 -4 4 -7 1 -12 -6 -12 -9 0 -9 -3 2 -10 13 -9 7 -14 -12 -11 -4 0 -3 -10 2
-23 4 -13 5 -27 2 -32 -4 -5 -6 -8 -3 -7 6 4 31 -25 31 -37 0 -6 5 -8 10 -5 6
4 7 12 4 18 -4 7 -3 8 1 4 13 -11 15 -37 3 -34 -6 1 -13 -4 -15 -11 -3 -8 2
-10 14 -6 15 5 15 4 3 -5 -12 -8 -12 -14 -4 -28 6 -10 17 -18 25 -19 41 -1 89
-43 89 -77 0 -16 2 -17 15 -7 9 7 18 10 22 6 3 -3 0 -6 -7 -6 -7 0 -10 -3 -7
-7 4 -3 0 -16 -8 -29 -13 -20 -13 -59 0 -72 12 -13 35 -9 35 5 0 13 19 -6 46
-45 1 -2 8 -4 16 -6 7 -1 18 -5 25 -9 6 -4 14 -3 18 3 4 6 10 8 15 5 5 -3 14
3 20 12 8 13 10 14 9 3 -3 -35 1 -46 12 -27 8 14 14 16 25 6 8 -6 23 -9 34 -6
11 3 18 2 15 -3 -3 -4 2 -11 11 -14 10 -4 13 -2 8 6 -5 8 -2 9 9 5 10 -4 17
-1 17 5 0 9 3 9 12 0 8 -8 17 -8 31 0 14 7 22 7 27 -2 5 -7 14 -9 21 -5 11 6
11 5 2 -5 -9 -10 -8 -18 4 -36 8 -13 19 -22 23 -19 5 3 15 -2 24 -10 9 -10 17
-11 21 -5 4 6 11 8 16 4 6 -3 3 -11 -6 -18 -14 -10 -13 -12 12 -11 17 0 27 -5
26 -12 -2 -8 4 -10 14 -6 10 4 14 2 10 -4 -10 -16 16 -22 30 -7 15 15 6 47
-11 37 -6 -3 -7 -2 -3 3 5 5 12 9 15 9 4 0 13 4 20 9 7 4 16 5 19 2 4 -3 1 -6
-6 -6 -7 0 -9 -5 -6 -10 4 -6 11 -8 16 -5 13 8 53 -31 44 -44 -3 -6 1 -11 9
-11 8 0 18 -5 22 -12 4 -7 3 -8 -4 -4 -7 4 -12 2 -12 -3 0 -6 4 -11 9 -11 5 0
16 -7 24 -15 13 -13 18 -12 39 3 26 20 54 22 51 4 -2 -7 4 -12 12 -12 8 0 15
-4 15 -10 0 -12 -22 -9 -32 5 -4 5 -11 6 -15 1 -4 -5 -2 -11 5 -13 9 -3 6 -12
-9 -31 -12 -16 -16 -28 -10 -30 6 -2 11 -8 11 -13 0 -6 -4 -7 -10 -4 -5 3 -10
-1 -10 -9 0 -9 3 -15 8 -15 20 3 31 -2 26 -14 -2 -7 3 -21 12 -32 8 -11 13
-13 9 -5 -4 8 3 4 14 -9 12 -13 21 -18 21 -11 0 16 39 3 68 -23 12 -11 19 -23
15 -26 -17 -13 -14 -33 4 -27 17 6 17 5 1 -8 -10 -7 -18 -16 -18 -19 0 -3 8
-8 18 -10 16 -4 16 -5 -1 -6 -10 0 -20 6 -24 15 -5 12 -7 13 -14 2 -4 -7 -15
-13 -23 -13 -9 0 -15 -4 -13 -10 1 -5 6 -9 11 -7 5 2 13 -3 17 -10 7 -10 9
-10 9 1 0 11 4 10 16 -5 8 -10 13 -14 10 -7 -3 6 12 3 34 -8 22 -11 40 -24 40
-29 0 -6 3 -9 8 -9 25 4 34 -2 23 -15 -9 -11 -6 -13 14 -11 14 2 23 -1 19 -6
-3 -5 4 -9 16 -9 12 0 18 -5 15 -10 -4 -6 -11 -7 -17 -4 -7 4 -8 2 -4 -4 4 -7
16 -12 26 -12 10 0 22 -5 26 -12 5 -7 3 -8 -6 -3 -8 5 -11 4 -7 -1 3 -5 21 -9
41 -8 20 1 36 -2 36 -7 0 -6 6 -9 13 -8 29 4 48 -2 41 -12 -5 -8 -1 -8 14 0
16 8 24 8 35 -4 8 -8 18 -11 22 -7 5 4 5 -2 1 -12 -5 -15 -4 -17 7 -7 11 9 17
8 27 -4 7 -8 16 -13 20 -10 5 3 15 -1 22 -9 8 -7 25 -17 38 -21 23 -7 24 -6
11 9 -13 16 -12 16 12 5 15 -7 27 -19 28 -28 0 -9 3 -11 5 -5 3 7 14 10 25 7
14 -4 17 -9 9 -18 -8 -9 -4 -12 14 -10 14 2 27 -3 30 -12 3 -8 11 -11 17 -8 5
4 17 -1 25 -11 9 -11 13 -13 9 -6 -9 18 5 15 24 -7 16 -18 34 -20 84 -6 22 6
25 10 16 21 -9 12 -9 13 3 9 11 -4 18 2 22 19 8 31 36 35 36 6 0 -22 15 -27
23 -7 3 6 3 -3 0 -20 -5 -29 -3 -33 16 -33 12 0 19 -4 16 -10 -9 -14 8 -12 40
4 15 8 22 17 16 21 -6 3 -11 12 -11 18 0 7 4 6 10 -3 9 -13 11 -13 19 0 5 8 7
18 5 22 -9 14 57 9 171 -13 60 -11 157 -27 215 -34 117 -14 430 -17 530 -4 36
4 85 11 110 14 189 23 442 89 628 164 111 44 325 153 407 207 16 10 26 14 22
7 -5 -7 0 -16 11 -22 16 -8 23 -4 42 21 13 18 23 38 23 45 0 14 138 118 195
147 17 9 32 22 32 28 0 17 122 127 141 128 9 0 19 3 23 7 4 5 12 9 17 9 5 1
14 2 19 3 15 2 29 44 19 56 -5 7 3 23 19 40 98 106 254 320 331 455 46 81 157
309 167 345 18 65 64 169 73 168 6 -2 11 1 11 7 0 12 32 0 45 -17 9 -11 15 -9
33 12 l22 25 -26 -4 c-15 -3 -24 -2 -20 1 3 3 0 13 -7 21 -7 10 -8 13 -1 9 7
-4 18 1 25 10 12 15 12 16 -7 11 -16 -4 -20 -1 -18 16 1 12 3 22 4 24 2 1 3 6
4 10 1 11 36 45 36 36 0 -4 9 1 20 11 13 12 18 26 14 39 -4 17 -3 18 5 6 9
-13 14 -11 36 14 29 34 30 35 9 50 -13 10 -13 12 5 12 11 0 17 -5 14 -11 -4
-5 -2 -6 3 -2 5 5 9 14 9 20 1 7 7 11 14 9 8 -1 10 2 5 10 -16 25 -12 36 11
33 13 -1 29 2 37 7 10 7 9 8 -4 4 -10 -3 -20 0 -24 6 -4 6 -3 8 3 5 6 -4 19 1
29 9 10 9 13 13 7 9 -9 -4 -11 -1 -7 10 4 9 13 14 20 11 8 -3 11 0 7 10 -3 7
-11 14 -18 14 -8 0 -16 4 -20 9 -3 6 4 8 16 6 16 -3 18 -1 10 9 -7 9 -7 16 2
26 10 10 9 11 -2 5 -11 -6 -13 -3 -9 11 5 19 0 20 -73 19 -43 -1 -76 2 -73 6
2 4 -3 10 -12 13 -8 3 -12 10 -9 16 14 23 15 59 1 67 -12 6 -16 50 -20 223 -5
202 -10 266 -21 316 -3 12 1 21 8 21 49 2 90 19 81 34 -3 5 -11 6 -17 2 -7 -4
-5 1 3 11 8 10 13 31 12 48 -2 18 2 27 8 23 5 -3 10 -3 10 0 0 10 -23 30 -43
38 -13 5 -16 15 -13 42 3 24 -1 40 -12 52 -9 9 -15 19 -12 22 3 3 -5 7 -17 9
-13 2 -23 8 -23 14 0 6 -3 9 -6 5 -15 -15 -56 49 -80 125 -14 46 -41 119 -58
163 -18 44 -36 89 -41 100 -4 11 -7 31 -6 45 1 18 -1 21 -7 11 -19 -27 -23 25
-6 67 12 31 22 42 42 44 21 2 29 11 37 38 15 52 25 65 37 49 7 -10 8 -8 5 9
-4 18 -1 22 20 22 20 0 24 4 20 20 -7 28 7 25 27 -5 18 -27 21 -39 7 -31 -5 4
-7 -2 -4 -13 3 -12 -3 -24 -17 -34 -19 -13 -19 -15 -4 -21 16 -6 33 8 34 27 0
5 5 5 10 2 7 -4 7 -12 0 -25 -7 -13 -6 -21 4 -29 15 -13 27 -5 20 14 -7 17 13
29 22 13 5 -8 9 -7 13 4 5 14 8 14 19 2 11 -12 10 -14 -3 -14 -19 0 -19 -13 1
-51 15 -29 14 -30 -3 -25 -62 18 -69 18 -83 -8 -7 -14 -21 -28 -32 -32 -25 -8
-23 -18 14 -56 37 -38 52 -42 90 -22 35 18 36 8 1 -28 -20 -21 -23 -28 -11
-28 9 0 22 10 30 22 13 19 15 20 21 5 3 -9 2 -17 -3 -17 -6 0 -10 -5 -10 -11
0 -6 -7 -17 -15 -25 -18 -18 -20 -34 -4 -34 6 0 13 9 16 20 6 24 12 25 28 3 7
-9 17 -13 23 -9 17 10 15 26 -2 26 -8 0 -18 5 -22 12 -4 6 -3 8 4 5 6 -4 8 0
5 11 -2 10 5 26 16 36 12 11 21 25 21 33 0 11 5 11 29 -1 25 -13 31 -13 50 0
11 8 26 12 31 9 6 -3 12 0 15 7 20 56 0 108 -42 108 -37 0 -83 -27 -77 -45 11
-28 -25 -16 -49 18 -26 34 -41 68 -29 64 4 -1 18 8 30 19 27 25 17 37 -30 39
-38 2 -44 11 -13 19 22 6 25 9 14 22 -10 13 -14 13 -30 -2 -16 -14 -20 -13
-58 22 -33 29 -39 39 -30 51 18 21 19 71 2 77 -9 4 -11 11 -6 18 14 23 11 36
-7 41 -13 3 -17 0 -13 -9 3 -8 0 -14 -7 -14 -6 0 -10 7 -8 16 3 15 72 46 82
37 2 -2 19 -7 38 -10 42 -6 42 -6 40 -49 -1 -24 3 -34 11 -31 6 2 11 14 11 25
-2 28 16 29 23 2 6 -22 18 -26 28 -9 4 5 -1 19 -10 29 -20 22 -6 35 39 35 16
0 31 6 34 14 3 8 0 11 -7 7 -6 -4 -11 -2 -11 3 0 6 5 11 10 11 6 0 10 5 10 10
0 16 -20 12 -52 -11 -16 -12 -32 -18 -36 -14 -4 4 1 12 11 20 15 10 15 14 3
18 -8 3 -21 -4 -29 -16 -21 -32 -130 -36 -110 -4 18 30 8 62 -25 79 -18 9 -40
14 -48 11 -10 -4 -12 0 -8 11 3 8 14 18 24 21 24 8 34 34 15 41 -21 8 -44 -2
-52 -23 -13 -37 -22 -42 -54 -26 -28 14 -29 16 -14 33 13 14 13 19 3 23 -10 3
-8 12 9 34 20 28 20 32 7 52 -21 29 -30 26 -37 -9 -5 -21 -12 -30 -26 -30 -11
0 -21 -5 -23 -11 -5 -15 -38 17 -38 36 0 17 35 29 52 19 10 -6 10 -4 0 8 -11
14 -10 18 7 28 27 14 27 33 1 25 -16 -5 -69 5 -120 23 -8 2 -27 4 -42 3 -22
-2 -26 1 -21 18 3 13 1 21 -6 21 -7 0 -9 5 -6 10 3 6 1 10 -4 10 -14 0 -14
-13 -1 -26 6 -6 5 -15 -1 -24 -9 -13 -10 -12 -6 2 3 9 1 18 -6 21 -14 4 17 68
46 94 32 30 16 78 -28 82 -5 1 -10 18 -11 38 0 28 -6 39 -23 47 -17 7 -25 6
-31 -3 -21 -35 -20 52 1 92 16 29 0 39 -52 34 -72 -8 -184 -47 -200 -71 -11
-15 -39 2 -39 24 0 35 19 63 34 51 10 -8 17 -7 26 4 7 8 16 13 20 10 4 -2 19
8 34 24 24 25 28 37 29 105 2 83 -1 88 -58 91 -16 1 -43 5 -59 10 -17 5 -36 4
-45 -2 -12 -7 -20 -6 -28 3 -7 7 -8 14 -4 16 14 5 25 98 12 98 -6 0 -11 5 -11
10 0 17 -59 77 -75 77 -8 0 -15 -4 -15 -8 0 -9 -56 -23 -92 -22 -24 0 -50 -30
-52 -62 -1 -5 -8 -10 -17 -10 -9 0 -24 -8 -33 -18 -10 -9 -28 -17 -41 -17 -13
0 -27 -4 -30 -10 -3 -5 0 -10 7 -10 9 0 9 -3 -2 -10 -13 -8 -12 -10 2 -10 12
0 17 -8 17 -22 -1 -23 4 -51 16 -88 5 -15 2 -18 -13 -15 -21 4 -95 -26 -93
-38 4 -27 -2 -27 -10 1 -5 18 -14 30 -19 27 -6 -4 -10 -2 -10 4 0 5 5 13 10
16 6 3 10 1 10 -5 0 -6 5 -8 11 -4 8 4 5 11 -9 18 -11 6 -22 16 -24 21 -2 6
-11 9 -20 9 -23 -2 -31 24 -9 31 23 7 56 74 42 88 -28 28 -121 -2 -135 -43 -3
-8 -3 5 0 30 4 25 6 51 7 58 0 13 10 16 40 12 24 -2 78 24 99 47 27 30 75 128
72 147 -4 29 -25 36 -53 18 -14 -10 -22 -12 -18 -4 5 7 3 12 -6 12 -8 0 -17 7
-21 15 -8 23 -32 18 -54 -12 l-19 -26 -13 30 c-18 40 -39 53 -69 41z m-1831
-188 c0 -5 -4 -10 -10 -10 -5 0 -10 5 -10 10 0 6 5 10 10 10 6 0 10 -4 10 -10z
m-32 -35 c-3 -3 -9 2 -12 12 -6 14 -5 15 5 6 7 -7 10 -15 7 -18z m1366 -1 c3
-8 2 -12 -4 -9 -6 3 -10 10 -10 16 0 14 7 11 14 -7z m-1304 -14 c0 -5 -2 -10
-4 -10 -3 0 -8 5 -11 10 -3 6 -1 10 4 10 6 0 11 -4 11 -10z m1234 -26 c3 -8 2
-12 -4 -9 -6 3 -10 10 -10 16 0 14 7 11 14 -7z m-133 -11 c13 -16 12 -17 -3
-4 -10 7 -18 15 -18 17 0 8 8 3 21 -13z m-1126 -2 c3 -5 2 -12 -3 -15 -5 -3
-9 1 -9 9 0 17 3 19 12 6z m-120 -21 c3 -5 1 -10 -4 -10 -6 0 -11 5 -11 10 0
6 2 10 4 10 3 0 8 -4 11 -10z m67 -23 c-7 -8 -10 -16 -7 -19 3 -2 -2 -5 -10
-5 -10 0 -12 4 -5 12 5 7 6 16 2 20 -4 5 -1 4 7 0 11 -6 13 -4 7 11 -6 15 -5
16 5 7 9 -9 9 -16 1 -26z m75 14 c0 -11 -5 -18 -9 -15 -4 3 -5 11 -1 19 7 21
12 19 10 -4z m1157 10 c-9 -9 -34 -9 -34 -1 0 5 9 8 20 7 10 -1 17 -3 14 -6z
m166 -1 c0 -5 -4 -10 -10 -10 -5 0 -10 5 -10 10 0 6 5 10 10 10 6 0 10 -4 10
-10z m-756 -22 c-5 -7 -3 -8 7 -2 22 13 49 15 49 3 0 -8 4 -8 13 -2 12 10 28
10 147 -2 89 -8 132 -16 126 -23 -3 -3 -1 -11 6 -19 6 -7 7 -17 3 -21 -4 -4
-10 -1 -12 5 -3 10 -9 9 -20 -3 -13 -13 -29 -15 -82 -9 -36 3 -77 7 -91 8 -33
2 -64 31 -56 52 3 9 2 13 -4 10 -5 -3 -9 -17 -8 -30 1 -13 5 -22 9 -19 4 2 10
0 13 -5 3 -5 -18 -9 -49 -9 -30 1 -52 5 -49 9 3 5 0 9 -5 9 -6 0 -11 -4 -11
-9 0 -16 -64 -9 -78 8 -10 14 -11 14 -6 -4 4 -12 -4 -6 -19 14 -15 19 -24 38
-21 42 3 5 37 9 75 9 51 0 68 -3 63 -12z m680 4 c3 -5 -1 -9 -9 -9 -8 0 -12 4
-9 9 3 4 7 8 9 8 2 0 6 -4 9 -8z m134 -10 c-6 -7 -14 -9 -17 -5 -8 10 -31 15
-31 7 0 -4 8 -13 18 -21 15 -13 15 -13 -5 -3 -38 18 -30 36 16 35 23 0 27 -3
19 -13z m-1073 -7 c-10 -5 -34 -26 -53 -45 -27 -27 -44 -35 -73 -36 -21 0 -36
3 -34 6 3 4 -5 16 -18 26 -16 14 -18 14 -9 2 10 -12 10 -18 1 -24 -7 -4 -9 -3
-5 4 3 6 2 14 -4 17 -8 5 -7 11 1 21 9 11 8 14 -7 15 -32 3 138 27 180 26 32
-1 36 -3 21 -12z m992 0 c0 -7 -6 -12 -13 -12 -7 0 -11 4 -8 8 2 4 -2 9 -8 12
-7 3 -4 5 8 4 11 -1 21 -6 21 -12z m-1440 -15 c-1 -21 -10 -18 -13 5 -1 8 2
15 6 15 5 0 8 -9 7 -20z m1672 -4 c18 -13 28 -27 22 -30 -5 -3 -12 -1 -14 4
-3 6 -4 5 -3 -2 1 -7 13 -15 27 -19 13 -4 17 -8 9 -9 -19 -3 -21 -3 -45 5 -16
6 -17 5 -5 -4 8 -6 11 -11 6 -11 -6 0 3 -14 20 -31 19 -20 23 -28 11 -23 -10
3 -17 3 -15 -2 4 -12 -12 -15 -35 -8 -17 5 -17 7 -2 18 14 10 13 12 -10 14
-15 1 -24 -2 -20 -8 3 -6 2 -10 -3 -10 -10 0 -23 23 -29 53 -2 10 1 16 7 12 5
-3 10 -14 10 -23 0 -14 2 -15 9 -3 7 10 4 19 -7 27 -9 7 -20 10 -23 8 -4 -2
-15 6 -25 19 l-19 22 24 -20 c22 -18 24 -18 18 -2 -4 12 -3 16 4 11 6 -4 15 0
20 7 6 10 9 11 9 2 0 -7 5 -13 11 -13 5 0 7 5 4 10 -5 8 1 30 9 30 1 0 17 -11
35 -24z m-491 -12 c12 -2 22 -9 22 -15 0 -6 -4 -7 -10 -4 -5 3 -10 1 -10 -6 0
-7 -3 -10 -6 -6 -4 3 -19 0 -35 -9 -25 -13 -28 -13 -23 1 7 18 -7 20 -25 3 -9
-9 -12 -9 -7 -1 3 6 3 13 -1 16 -5 2 -2 2 5 1 6 -2 12 1 12 6 0 6 -9 10 -19
10 -11 0 -22 4 -25 9 -13 20 7 19 122 -5z m257 -4 c-3 -5 -1 -10 6 -10 7 0 10
-3 6 -6 -9 -9 -28 6 -22 17 4 5 8 9 11 9 3 0 2 -4 -1 -10z m-1341 -8 c3 -5 -1
-9 -9 -9 -8 0 -12 4 -9 9 3 4 7 8 9 8 2 0 6 -4 9 -8z m122 -4 c4 -7 3 -10 -1
-5 -5 4 -16 0 -26 -9 -14 -12 -18 -13 -25 -2 -4 7 -4 10 1 6 4 -4 14 -1 22 7
18 18 20 18 29 3z m1257 -13 c-7 -21 -12 -19 -10 4 0 11 5 18 9 15 4 -3 5 -11
1 -19z m587 -7 c0 -5 -4 -8 -10 -8 -5 0 -10 10 -10 23 0 18 2 19 10 7 5 -8 10
-18 10 -22z m-1886 -27 c-5 -6 -34 20 -34 30 0 5 8 1 18 -8 10 -10 17 -20 16
-22z m1051 29 c-3 -5 -12 -10 -18 -10 -7 0 -6 4 3 10 19 12 23 12 15 0z
m-1105 -21 c0 -5 -4 -9 -8 -9 -5 0 -9 7 -9 15 0 8 4 12 9 9 4 -3 8 -9 8 -15z
m1195 -8 c-6 -5 -25 10 -25 20 0 5 6 4 14 -3 8 -7 12 -15 11 -17z m172 7 c-3
-8 -6 -5 -6 6 -1 11 2 17 5 13 3 -3 4 -12 1 -19z m88 -6 c-3 -3 0 -11 6 -19 9
-9 8 -13 0 -13 -6 0 -11 5 -11 10 0 6 -3 9 -7 9 -5 -1 -15 -1 -23 0 -12 1 -11
4 3 12 10 6 14 15 10 22 -4 7 1 6 10 -2 10 -8 15 -16 12 -19z m-934 -1 c-9 -6
-10 -11 -2 -15 6 -4 11 -2 11 4 0 6 4 8 10 5 5 -3 7 0 5 7 -4 10 2 14 19 14
26 0 43 -21 26 -31 -6 -4 -10 -1 -10 4 0 6 -5 11 -12 11 -6 0 -3 -9 7 -20 20
-22 8 -28 -14 -7 -11 10 -13 10 -7 0 4 -7 2 -13 -3 -13 -6 0 -11 5 -11 12 0 6
-3 8 -7 5 -3 -4 -12 -2 -20 4 -10 9 -11 15 -2 26 7 7 14 11 18 8 3 -3 -1 -10
-8 -14z m129 4 c0 -6 3 -6 8 0 8 12 73 15 66 3 -3 -4 0 -8 5 -8 6 0 11 4 11 8
0 5 7 9 15 9 8 0 15 -4 15 -9 0 -5 -7 -11 -15 -14 -8 -4 -15 -16 -15 -28 -1
-19 -3 -18 -16 7 -9 16 -18 26 -22 23 -3 -4 0 -12 6 -18 21 -21 13 -32 -8 -13
-12 10 -18 25 -16 32 4 10 1 11 -12 4 -10 -5 -27 -8 -38 -6 -10 2 -22 4 -26 4
-21 2 -5 19 17 17 14 0 25 -5 25 -11z m470 5 c0 -5 -5 -10 -11 -10 -5 0 -7 5
-4 10 3 6 8 10 11 10 2 0 4 -4 4 -10z m-1324 -15 c4 -8 14 -15 23 -16 10 0 11
-2 3 -6 -6 -2 -10 -9 -7 -13 17 -28 -109 -34 -127 -6 -13 19 -9 24 35 39 55
20 66 20 73 2z m319 -3 c-3 -3 -11 0 -18 7 -9 10 -8 11 6 5 10 -3 15 -9 12
-12z m756 8 c12 -7 20 -7 24 0 5 8 11 7 21 -1 8 -6 14 -8 14 -5 0 4 7 1 15 -8
18 -18 19 -27 3 -23 -7 1 -12 -4 -10 -11 1 -8 -2 -11 -8 -7 -8 5 -7 12 2 23
11 13 11 15 -4 10 -9 -4 -19 -4 -22 0 -20 19 -42 7 -37 -21 1 -5 -3 -5 -9 -2
-6 4 -9 13 -7 19 6 15 -37 16 -50 2 -5 -5 -2 -6 6 -1 10 5 12 4 7 -4 -11 -17
-26 -4 -20 17 5 15 4 15 -8 2 -7 -8 -20 -16 -28 -18 -11 -3 -9 2 5 16 22 21
77 27 106 12z m376 -6 c-2 -3 -17 -7 -33 -10 -17 -2 -24 -1 -17 4 13 8 58 14
50 6z m35 -16 c-5 -21 -11 -22 -32 -7 -12 9 -12 10 4 5 13 -4 17 -2 13 7 -3 8
1 14 8 14 7 0 10 -8 7 -19z m-628 -7 c9 -8 19 -11 23 -7 3 3 1 6 -5 6 -7 0
-12 5 -12 12 0 6 9 3 20 -7 21 -19 27 -55 10 -55 -5 0 -7 8 -4 18 3 9 -3 4
-12 -13 -10 -16 -18 -33 -17 -36 3 -10 -54 -4 -68 7 -8 6 -22 10 -31 9 -10 -2
-18 1 -18 6 0 8 15 13 33 10 4 0 7 4 7 10 0 6 -9 8 -20 4 -23 -7 -28 10 -5 19
19 7 51 -24 35 -34 -9 -5 -9 -9 -1 -14 10 -7 16 7 11 29 -7 31 -6 41 3 46 14
9 32 5 51 -10z m722 -18 c4 4 2 7 -4 7 -7 0 -12 5 -12 10 0 6 10 4 23 -5 13
-8 26 -13 29 -10 3 3 18 1 34 -6 88 -35 107 -47 98 -61 -3 -5 -11 -4 -19 2 -8
7 -24 13 -37 15 -48 7 -83 16 -88 23 -5 7 -13 9 -50 17 -8 2 -16 4 -17 5 -4 3
-20 7 -33 9 -5 0 -10 6 -10 12 0 5 4 8 8 5 4 -2 14 -1 22 4 11 7 20 3 32 -13
9 -12 20 -18 24 -14z m-1186 2 c4 3 10 -2 14 -10 3 -8 0 -17 -6 -21 -6 -4 -8
-3 -5 3 4 6 0 13 -8 17 -8 3 -14 13 -14 23 1 17 2 17 6 0 2 -9 8 -15 13 -12z
m650 10 c0 -8 -4 -15 -10 -15 -5 0 -7 7 -4 15 4 8 8 15 10 15 2 0 4 -7 4 -15z
m254 7 c3 -5 -1 -9 -9 -9 -8 0 -12 4 -9 9 3 4 7 8 9 8 2 0 6 -4 9 -8z m852
-29 c-3 -8 -1 -11 5 -8 5 4 7 15 4 24 -3 11 0 18 8 18 15 0 20 -34 6 -42 -17
-11 -49 -14 -49 -4 0 5 -6 9 -14 9 -8 0 -18 5 -22 12 -5 7 -2 9 9 5 9 -3 18 1
21 10 5 12 9 13 22 3 8 -7 13 -19 10 -27z m474 21 c0 -8 -5 -12 -10 -9 -6 4
-8 11 -5 16 9 14 15 11 15 -7z m-2744 -6 c5 -8 2 -9 -9 -5 -10 3 -17 2 -17 -4
0 -6 -5 -7 -12 -3 -7 4 -8 3 -4 -5 4 -6 1 -14 -7 -16 -15 -7 -19 -67 -3 -62 6
2 10 14 10 28 0 13 8 30 17 37 15 10 24 9 55 -8 25 -15 35 -17 31 -7 -3 7 1
14 8 14 8 0 11 -7 7 -16 -5 -14 -3 -14 10 -3 13 10 18 10 24 1 4 -7 3 -9 -4
-5 -6 3 -13 2 -16 -3 -4 -5 -14 -8 -24 -7 -9 2 -21 -2 -25 -8 -6 -7 -7 -5 -4
6 7 22 -28 31 -45 11 -11 -14 -10 -15 10 -9 16 6 22 3 22 -9 0 -12 -6 -14 -26
-9 -21 5 -25 4 -19 -6 5 -9 4 -11 -4 -6 -6 4 -14 0 -17 -8 -3 -9 -10 -16 -15
-16 -4 0 -51 -20 -103 -44 -76 -36 -101 -43 -123 -37 -45 13 -113 -5 -113 -31
0 -6 7 -5 18 3 14 12 14 10 -2 -8 -10 -12 -16 -29 -13 -38 4 -8 2 -15 -3 -15
-17 0 -25 5 -22 13 1 5 -2 6 -7 2 -6 -3 -8 -12 -5 -19 3 -8 -7 -18 -25 -26
-17 -7 -31 -15 -31 -19 0 -4 -14 -15 -30 -25 -24 -13 -34 -15 -45 -6 -11 9
-12 7 -9 -8 6 -20 -9 -36 -45 -47 -17 -5 -21 -4 -16 5 12 19 -38 -12 -55 -35
-8 -11 -14 -24 -12 -29 5 -15 -42 -40 -69 -37 -21 2 -29 -3 -35 -21 -4 -13 -7
-27 -5 -32 3 -13 -100 -116 -117 -116 -7 0 -11 -4 -8 -9 3 -4 -4 -17 -15 -27
-85 -76 -279 -330 -369 -483 -51 -85 -57 -92 -82 -88 -16 2 -28 0 -28 -5 0 -5
-4 -7 -8 -4 -14 9 -33 -10 -38 -38 -3 -19 -1 -25 7 -21 8 6 8 2 1 -12 -15 -27
-37 -44 -53 -41 -8 2 -13 -3 -11 -10 1 -8 -2 -11 -8 -7 -5 3 -10 13 -10 21 0
14 112 240 143 288 87 137 154 233 189 270 24 25 44 51 46 58 4 16 123 147
215 236 61 59 76 69 79 54 8 -28 42 -32 75 -11 16 11 22 19 13 19 -13 0 -13 1
0 10 11 7 11 10 2 10 -7 0 -10 5 -7 10 5 9 -16 15 -38 11 -5 -1 -5 3 -2 9 4 6
14 9 22 6 8 -3 11 -2 8 4 -12 20 249 200 427 295 105 55 331 154 355 155 6 0
15 -5 19 -12z m849 -6 c-3 -3 -11 0 -18 7 -9 10 -8 11 6 5 10 -3 15 -9 12 -12z
m510 -1 c-9 -8 -36 -10 -30 -2 2 4 11 8 20 8 8 0 13 -3 10 -6z m140 -1 c-3 -5
-1 -10 6 -10 7 0 10 -3 6 -6 -9 -9 -28 6 -22 17 4 5 8 9 11 9 3 0 2 -4 -1 -10z
m-1095 -20 c0 -5 -4 -10 -10 -10 -5 0 -10 5 -10 10 0 6 5 10 10 10 6 0 10 -4
10 -10z m95 0 c3 -5 1 -10 -4 -10 -6 0 -11 5 -11 10 0 6 2 10 4 10 3 0 8 -4
11 -10z m105 4 c0 -8 -19 -13 -24 -6 -3 5 1 9 9 9 8 0 15 -2 15 -3z m642 -18
c5 3 16 -3 24 -15 21 -29 38 -27 19 2 -14 22 -14 24 2 22 10 -1 26 -6 37 -10
16 -7 17 -9 2 -17 -13 -7 -14 -13 -5 -30 8 -15 8 -19 0 -14 -6 4 -11 1 -11 -6
0 -7 -7 -3 -15 9 -11 15 -23 21 -43 18 -34 -4 -62 9 -39 18 9 3 14 14 13 24
-2 10 -1 12 1 5 3 -7 9 -9 15 -6z m298 14 c0 -5 -4 -10 -10 -10 -5 0 -10 5
-10 10 0 6 5 10 10 10 6 0 10 -4 10 -10z m26 1 c-9 -13 19 -32 38 -25 9 3 13
10 10 15 -3 5 2 6 11 3 9 -4 14 -13 11 -21 -4 -9 -2 -12 7 -7 7 5 5 0 -3 -11
-13 -17 -13 -18 0 -10 8 4 12 5 8 0 -10 -11 11 -47 23 -40 5 4 9 1 9 -4 0 -6
-5 -11 -11 -11 -5 0 -7 -6 -3 -12 4 -7 -2 -5 -13 5 -11 9 -23 14 -28 10 -4 -5
-5 -2 -1 5 7 11 -4 16 -31 13 -7 -1 -17 9 -23 21 -10 21 -10 21 3 6 8 -10 17
-18 21 -18 12 0 6 15 -19 44 -21 25 -25 46 -9 46 3 0 3 -4 0 -9z m1187 -11 c3
-11 1 -20 -4 -20 -5 0 -9 2 -9 4 0 2 -3 11 -6 20 -3 9 -2 16 4 16 5 0 12 -9
15 -20z m-2485 -20 c15 -25 42 -22 59 5 7 11 12 16 13 10 0 -18 -41 -78 -48
-70 -4 4 -1 10 6 12 6 3 12 9 12 14 0 6 -9 5 -21 -1 -22 -12 -29 -10 -33 12
-1 7 -5 19 -9 26 -5 6 -4 12 0 12 5 0 14 -9 21 -20z m32 8 c0 -4 -4 -8 -9 -8
-6 0 -12 4 -15 8 -3 5 1 9 9 9 8 0 15 -4 15 -9z m107 3 c11 10 14 10 9 2 -7
-13 4 -17 32 -14 6 1 12 -3 12 -9 0 -5 7 -10 15 -10 18 0 20 17 3 23 -7 2 0 4
16 4 19 0 24 -2 15 -8 -11 -7 -10 -11 6 -23 11 -9 16 -16 11 -16 -5 0 -3 -7 4
-15 9 -11 9 -15 1 -15 -7 0 -9 -5 -5 -12 4 -7 3 -8 -4 -4 -7 4 -12 1 -12 -6 0
-10 -2 -10 -9 1 -6 9 -11 10 -15 2 -4 -6 -12 -11 -17 -11 -15 0 -7 43 11 58
13 10 13 11 -2 6 -11 -4 -18 -1 -18 7 0 7 -3 9 -7 6 -3 -4 -12 -2 -20 4 -7 6
-13 8 -13 3 0 -5 -4 -4 -8 3 -6 9 -11 7 -20 -7 -7 -12 -8 -20 -2 -20 5 0 10 4
10 9 0 10 14 9 42 -3 18 -8 18 -38 -1 -44 -7 -2 -15 5 -18 17 -6 24 -5 23 -27
15 -9 -3 -13 -10 -10 -15 3 -5 -2 -6 -10 -3 -8 3 -16 13 -18 22 -2 12 -6 13
-11 5 -4 -6 0 -19 9 -27 8 -9 10 -16 4 -16 -6 0 -13 7 -16 15 -4 8 -10 12 -16
9 -5 -3 -4 3 4 15 8 14 19 19 33 15 20 -5 20 -5 1 10 -11 9 -14 16 -7 16 7 0
9 5 5 13 -5 8 -2 8 9 -2 14 -11 20 -11 34 0z m803 -2 c0 -3 -11 -6 -25 -6 -14
0 -25 3 -25 6 0 4 11 7 25 7 14 0 25 -3 25 -7z m306 -8 c1 -6 0 -7 -3 -1 -2 5
-9 8 -13 5 -5 -3 -11 -1 -14 4 -4 5 2 8 11 7 9 -2 18 -8 19 -15z m154 8 c-12
-9 -11 -10 8 -6 12 3 28 0 35 -7 7 -7 22 -12 34 -11 19 1 20 -1 12 -17 -8 -15
-13 -17 -25 -7 -11 9 -14 8 -14 -4 0 -27 28 -27 50 0 11 14 20 21 20 15 0 -6
6 -9 14 -6 8 3 17 1 21 -5 3 -7 0 -8 -9 -5 -11 4 -16 0 -16 -11 0 -12 -5 -15
-21 -10 -14 5 -19 3 -15 -3 7 -12 -23 -9 -51 6 -10 5 -26 8 -35 7 -10 -2 -18
0 -19 3 -8 62 -7 72 9 72 15 0 15 -2 2 -11z m-1439 -13 c-1 -4 5 -19 13 -35
16 -31 13 -41 -15 -41 -26 0 -32 16 -12 35 14 14 14 18 2 26 -11 7 -11 9 -1 9
8 0 10 5 6 13 -4 6 -4 9 0 5 4 -3 7 -9 7 -12z m1311 -28 c-6 -6 -7 0 -4 19 5
21 7 23 10 9 2 -10 0 -22 -6 -28z m-1362 17 c0 -8 -2 -15 -4 -15 -2 0 -6 7
-10 15 -3 8 -1 15 4 15 6 0 10 -7 10 -15z m2500 9 c0 -7 -27 -34 -35 -34 -3 0
-1 9 5 20 10 18 30 28 30 14z m50 -10 l25 -15 -28 4 c-22 4 -27 1 -22 -11 4
-12 3 -13 -9 -3 -8 7 -12 19 -9 27 6 17 12 17 43 -2z m-2578 -9 c-2 -4 2 -12
10 -17 9 -7 8 -8 -5 -4 -12 4 -17 2 -14 -6 2 -7 10 -12 16 -10 6 1 11 -2 11
-8 0 -5 -4 -10 -9 -10 -14 0 -33 28 -26 40 3 5 1 10 -4 10 -6 0 -11 4 -11 9 0
5 8 8 18 7 9 -2 15 -6 14 -11z m1217 2 c14 4 14 3 1 -6 -21 -15 -27 -14 -35 7
-5 13 -3 14 6 5 6 -6 19 -9 28 -6z m561 -4 c0 5 7 2 15 -7 9 -8 22 -13 30 -10
7 3 18 -3 24 -15 11 -20 10 -20 -26 -4 -49 20 -75 38 -66 47 4 3 10 1 15 -6 4
-7 8 -9 8 -5z m-1825 -3 c-3 -5 -3 -10 2 -10 9 0 35 -51 29 -57 -2 -2 -11 0
-20 3 -13 5 -14 9 -6 14 8 5 0 12 -24 21 l-36 13 28 12 c35 16 34 16 27 4z
m89 -25 c-4 -8 -8 -15 -10 -15 -2 0 -4 7 -4 15 0 8 4 15 10 15 5 0 7 -7 4 -15z
m1046 -16 c0 -5 -5 -9 -12 -9 -6 0 -8 3 -5 7 4 3 1 13 -6 22 -11 14 -10 14 6
2 9 -7 17 -17 17 -22z m44 20 c3 -3 -4 -5 -14 -6 -11 -1 -22 2 -25 8 -6 9 30
7 39 -2z m106 7 c0 -3 -4 -8 -10 -11 -5 -3 -10 -1 -10 4 0 6 5 11 10 11 6 0
10 -2 10 -4z m85 -6 c3 -5 1 -10 -4 -10 -6 0 -11 5 -11 10 0 6 2 10 4 10 3 0
8 -4 11 -10z m1205 -21 c0 -5 -4 -9 -10 -9 -5 0 -10 7 -10 16 0 8 5 12 10 9 6
-3 10 -10 10 -16z m-2627 -2 c-4 -6 2 -8 15 -5 15 4 19 2 15 -8 -3 -8 0 -14 6
-14 13 0 55 -45 50 -54 -2 -3 5 -12 16 -21 l20 -15 -20 -12 c-21 -13 -33 -16
-75 -21 -15 -2 -24 -9 -22 -18 1 -9 -3 -7 -13 5 -9 12 -11 22 -6 26 6 3 -4 12
-20 19 -25 11 -36 11 -57 1 -15 -6 -28 -12 -29 -11 -8 2 -73 -66 -73 -76 0 -7
-7 -13 -16 -13 -8 0 -12 5 -9 10 3 6 2 10 -3 10 -6 0 -13 16 -16 35 -5 23 -13
35 -24 36 -11 0 -13 2 -4 6 10 4 9 8 -4 18 -16 11 -12 16 37 40 104 54 251 93
232 62z m1477 7 c0 -8 -19 -13 -24 -6 -3 5 1 9 9 9 8 0 15 -2 15 -3z m-1200
-14 c8 -5 11 -12 7 -17 -5 -4 -12 -1 -17 6 -4 8 -15 11 -25 8 -9 -4 -14 -3
-10 3 8 12 25 13 45 0z m-107 -22 c23 -17 29 -18 25 -6 -5 12 -2 15 15 10 12
-2 27 -9 33 -13 6 -5 14 -6 17 -2 4 3 7 1 7 -6 0 -7 -6 -11 -12 -8 -48 19 -53
19 -28 -4 16 -14 19 -20 8 -16 -10 3 -20 2 -23 -3 -7 -11 14 -17 42 -12 13 2
20 9 16 15 -3 6 -1 7 6 3 16 -10 4 -26 -21 -26 -17 0 -18 -2 -8 -15 11 -13 15
-13 22 -3 7 10 9 10 5 -2 -2 -8 -12 -14 -22 -12 -10 2 -14 -1 -10 -7 3 -6 1
-11 -5 -11 -7 0 -9 8 -5 20 4 11 3 20 -2 19 -21 -4 -34 2 -27 13 5 8 2 9 -10
5 -10 -4 -15 -3 -11 3 3 6 -1 13 -9 16 -9 3 -16 11 -16 16 0 6 6 5 15 -2 9 -7
15 -8 15 -2 0 5 -15 19 -32 31 -18 11 -29 21 -25 21 5 0 23 -10 40 -22z m1497
18 c0 -3 -4 -8 -10 -11 -5 -3 -10 -1 -10 4 0 6 5 11 10 11 6 0 10 -2 10 -4z
m-1524 -42 c-3 -8 0 -17 8 -20 17 -7 16 -36 -3 -50 -13 -10 -14 -14 -1 -30 14
-17 13 -18 -1 -6 -9 7 -16 24 -16 38 0 15 -7 30 -14 35 -11 7 -11 9 -1 9 7 0
16 -10 21 -22 4 -12 11 -17 14 -11 10 16 -21 53 -40 46 -12 -5 -14 -3 -8 7 6
10 4 12 -11 6 -14 -5 -16 -4 -8 4 9 9 17 9 33 1 25 -14 28 -4 4 16 -16 13 -16
13 5 3 15 -7 21 -17 18 -26z m1084 14 c0 -11 -28 -10 -35 1 -3 6 4 9 15 8 11
-1 20 -5 20 -9z m441 -15 c13 -16 12 -17 -3 -4 -17 13 -22 21 -14 21 2 0 10
-8 17 -17z m301 0 c10 -9 18 -21 18 -27 0 -6 -5 -3 -11 7 -6 9 -15 14 -21 11
-6 -4 -8 -2 -4 4 3 6 -2 13 -11 15 -11 3 -13 5 -4 6 8 0 23 -6 33 -16z m307
-5 c-11 -7 -9 -9 6 -7 41 3 54 -1 49 -15 -4 -11 4 -17 30 -21 19 -4 40 -4 46
0 6 4 17 1 25 -5 12 -10 15 -10 15 0 0 13 37 50 51 50 4 0 1 -20 -8 -45 -8
-25 -16 -45 -18 -45 -1 0 -16 7 -31 15 -34 18 -101 20 -106 4 -3 -8 -10 -6
-21 5 -9 9 -20 18 -24 19 -4 1 -7 8 -7 14 1 7 -2 10 -7 7 -5 -3 -9 0 -9 7 0 7
-3 10 -6 7 -3 -4 -1 -15 5 -26 8 -16 7 -21 -4 -26 -9 -3 -15 0 -15 9 0 9 -6
12 -16 8 -9 -3 -5 6 10 22 14 15 26 32 26 37 0 5 5 6 11 2 8 -4 7 -9 -2 -16z
m-1878 -11 c-10 -9 -11 -8 -5 6 3 10 9 15 12 12 3 -3 0 -11 -7 -18z m64 -16
c3 -5 2 -12 -3 -15 -5 -3 -9 1 -9 9 0 17 3 19 12 6z m1558 -4 c7 4 5 -2 -3
-12 -14 -17 -13 -18 5 -11 11 4 16 4 12 0 -4 -4 1 -13 11 -21 16 -12 16 -13
-2 -6 -15 5 -17 3 -12 -8 4 -8 -1 -4 -12 8 -11 12 -22 20 -25 17 -3 -3 -4 2
-2 13 2 10 4 23 5 28 1 6 4 4 7 -3 2 -6 10 -9 16 -5z m-1598 -17 c10 -11 16
-20 13 -20 -3 0 -13 9 -23 20 -10 11 -16 20 -13 20 3 0 13 -9 23 -20z m-117
-16 c-2 -10 3 -19 10 -21 7 -3 12 -1 11 4 -3 19 2 33 12 33 8 0 8 -4 0 -14 -8
-10 -9 -16 -1 -21 5 -3 10 -1 10 6 0 7 3 9 6 6 4 -4 3 -12 -3 -19 -5 -7 -8
-23 -7 -36 1 -12 -1 -20 -5 -17 -3 4 -6 14 -6 22 0 9 -5 18 -11 20 -6 2 -11
-7 -11 -19 -1 -51 -2 -52 -23 -33 -11 10 -19 25 -19 34 1 13 2 13 6 -2 2 -9 8
-15 13 -12 5 3 7 12 3 20 -3 8 0 15 7 15 6 0 8 4 5 10 -9 14 -56 -19 -48 -34
3 -6 3 -8 -2 -4 -4 4 -17 2 -29 -4 -18 -10 -19 -9 -8 4 7 9 9 18 5 20 -4 3 -2
3 5 1 18 -4 74 36 67 48 -4 5 -1 9 5 9 6 0 10 -7 8 -16z m1907 -12 c-3 -3 -11
0 -18 7 -9 10 -8 11 6 5 10 -3 15 -9 12 -12z m-2511 -3 c3 -3 -4 -5 -14 -6
-11 -1 -22 2 -24 6 -5 8 30 8 38 0z m483 -31 c2 -12 1 -19 -3 -16 -3 3 -6 12
-8 20 -1 7 -5 20 -10 28 -7 12 -6 13 4 3 8 -7 15 -23 17 -35z m2566 27 c-3 -9
-8 -14 -10 -11 -3 3 -2 9 2 15 9 16 15 13 8 -4z m253 -20 c-1 -8 -5 -17 -8
-21 -5 -4 -4 16 1 34 3 9 9 -1 7 -13z m-3322 -27 c8 -6 8 -8 0 -8 -6 0 -10
-11 -8 -26 2 -20 0 -23 -12 -14 -7 7 -12 22 -10 34 3 11 5 28 6 36 1 13 2 13
7 0 3 -8 11 -18 17 -22z m447 15 c13 -16 12 -17 -3 -4 -10 7 -18 15 -18 17 0
8 8 3 21 -13z m1959 10 c0 -5 -5 -15 -10 -23 -7 -12 -9 -10 -7 8 1 19 17 33
17 15z m-2340 -7 c0 -3 -4 -8 -10 -11 -5 -3 -10 -1 -10 4 0 6 5 11 10 11 6 0
10 -2 10 -4z m320 -6 c0 -5 -5 -10 -11 -10 -5 0 -7 5 -4 10 3 6 8 10 11 10 2
0 4 -4 4 -10z m325 0 c-3 -5 -12 -10 -18 -10 -7 0 -6 4 3 10 19 12 23 12 15 0z
m2355 6 c0 -9 -30 -14 -35 -6 -4 6 3 10 14 10 12 0 21 -2 21 -4z m-3117 -19
c3 -7 -3 -13 -14 -13 -13 0 -15 3 -7 13 6 7 12 13 13 13 2 0 5 -6 8 -13z
m2972 3 c3 -5 1 -10 -4 -10 -6 0 -11 5 -11 10 0 6 2 10 4 10 3 0 8 -4 11 -10z
m-501 -16 c3 -8 2 -12 -4 -9 -6 3 -10 10 -10 16 0 14 7 11 14 -7z m-1782 -32
c7 10 12 8 26 -8 10 -12 28 -20 41 -19 21 2 22 0 8 -10 -9 -7 -15 -15 -12 -18
3 -4 2 -5 -2 -2 -3 3 -12 0 -20 -6 -9 -9 -13 -8 -13 0 0 6 5 11 11 11 5 0 8 4
5 9 -7 11 -23 9 -56 -8 -22 -11 -23 -11 -7 2 16 14 16 16 2 31 -9 9 -22 16
-28 16 -7 0 -3 -7 7 -15 33 -25 7 -17 -32 10 -20 14 -32 25 -26 25 5 0 15 -5
22 -12 18 -18 27 -1 11 19 -8 10 1 5 20 -10 26 -22 36 -25 43 -15z m-132 18
c0 -5 -5 -10 -11 -10 -5 0 -7 5 -4 10 3 6 8 10 11 10 2 0 4 -4 4 -10z m205 0
c3 -6 -1 -7 -9 -4 -18 7 -21 14 -7 14 6 0 13 -4 16 -10z m95 6 c0 -3 -4 -8
-10 -11 -5 -3 -10 -1 -10 4 0 6 5 11 10 11 6 0 10 -2 10 -4z m1580 0 c0 -3 -4
-8 -10 -11 -5 -3 -10 -1 -10 4 0 6 5 11 10 11 6 0 10 -2 10 -4z m-2482 -36
c-7 -10 -14 -17 -17 -15 -4 4 18 35 25 35 2 0 -1 -9 -8 -20z m38 -6 c1 -9 0
-13 -3 -10 -4 3 -13 0 -22 -6 -12 -10 -12 -7 2 8 9 11 15 24 12 27 -3 4 -2 5
2 2 4 -3 8 -13 9 -21z m609 -4 c-3 -4 3 -14 12 -21 15 -12 16 -12 10 6 -7 20
-7 20 8 1 22 -29 1 -46 -23 -18 -11 12 -21 20 -23 17 -3 -2 -5 4 -5 14 0 11 6
17 13 14 7 -3 11 -9 8 -13z m-770 -15 c-1 -14 -5 -28 -10 -32 -4 -5 -5 -2 -1
5 4 6 2 12 -3 12 -6 0 -11 -6 -11 -14 0 -18 -33 -30 -60 -21 -28 9 -25 16 23
47 52 34 63 35 62 3z m305 19 c0 -8 -19 -13 -24 -6 -3 5 1 9 9 9 8 0 15 -2 15
-3z m-265 -23 c-3 -6 3 -14 12 -20 10 -6 13 -11 7 -11 -15 0 -36 25 -27 33 10
10 15 8 8 -2z m42 -8 c0 -9 -4 -10 -14 -2 -7 6 -13 12 -13 14 0 1 6 2 13 2 8
0 14 -6 14 -14z m650 1 c-3 -3 -12 -4 -19 -1 -8 3 -5 6 6 6 11 1 17 -2 13 -5z
m-604 -19 c-3 -9 -8 -14 -10 -11 -3 3 -2 9 2 15 9 16 15 13 8 -4z m654 -28 c0
-7 -9 -13 -19 -13 -17 0 -18 1 -3 12 9 7 12 15 6 18 -5 4 -12 2 -16 -4 -3 -5
-12 -10 -18 -10 -7 0 -6 4 3 10 13 9 13 10 0 10 -13 0 -13 1 0 10 16 10 47
-11 47 -33z m-931 21 c4 -7 4 -10 -1 -6 -4 4 -15 2 -24 -5 -14 -11 -14 -10 -2
6 16 20 18 21 27 5z m261 -13 c8 -8 19 -13 24 -10 5 4 9 1 9 -4 0 -6 -4 -11
-9 -11 -11 0 -59 39 -48 40 5 0 15 -7 24 -15z m73 5 c0 -5 -2 -10 -4 -10 -3 0
-8 5 -11 10 -3 6 -1 10 4 10 6 0 11 -4 11 -10z m-278 -19 c3 8 7 9 11 3 8 -14
-27 -34 -43 -24 -8 5 -10 15 -6 26 7 18 8 18 21 1 9 -13 14 -14 17 -6z m178
-2 c0 -5 -4 -9 -8 -9 -5 0 -9 7 -9 15 0 8 4 12 9 9 4 -3 8 -9 8 -15z m-280 1
c0 -5 -5 -10 -11 -10 -5 0 -7 5 -4 10 3 6 8 10 11 10 2 0 4 -4 4 -10z m226 -2
c3 -4 -1 -5 -10 -4 -8 1 -18 5 -22 8 -3 4 1 5 10 4 8 -1 18 -5 22 -8z m194 2
c0 -5 -2 -10 -4 -10 -3 0 -8 5 -11 10 -3 6 -1 10 4 10 6 0 11 -4 11 -10z m34
2 c3 -5 -1 -9 -9 -9 -8 0 -12 4 -9 9 3 4 7 8 9 8 2 0 6 -4 9 -8z m-416 -24
c-2 -7 3 -12 10 -10 8 1 11 -2 8 -7 -4 -5 2 -14 11 -20 10 -6 12 -11 6 -11 -7
0 -13 -6 -13 -14 0 -8 -7 -17 -16 -20 -8 -3 -13 -2 -9 3 3 5 2 11 -2 14 -5 2
-2 2 5 0 7 -1 10 2 7 7 -10 16 -30 12 -51 -11 -10 -11 -14 -20 -9 -19 6 2 16
2 24 1 11 -1 11 -4 0 -18 -10 -11 -10 -14 -1 -9 15 9 15 1 2 -25 -7 -13 -7
-19 0 -19 5 0 9 -5 8 -12 -2 -8 9 -13 27 -13 24 0 30 -5 31 -22 1 -12 4 -29 8
-38 4 -12 2 -16 -8 -12 -7 3 -19 0 -26 -6 -9 -8 -11 -8 -7 -1 4 7 -3 12 -18
12 -14 0 -25 -4 -25 -9 0 -5 -3 -8 -7 -8 -31 5 -50 -29 -29 -51 8 -10 6 -10
-11 -1 -13 6 -23 8 -23 4 0 -4 -4 -2 -8 5 -9 13 -42 6 -42 -9 0 -5 -9 -9 -19
-9 -11 0 -23 -9 -26 -20 -4 -11 -11 -18 -16 -15 -5 4 -14 -6 -19 -20 -5 -14
-14 -24 -19 -21 -13 8 -21 -19 -10 -33 6 -8 5 -8 -3 -1 -16 13 -31 13 -22 -1
5 -8 1 -8 -14 0 -24 13 -65 15 -58 2 3 -4 -5 -6 -18 -4 -16 3 -27 -3 -40 -21
-9 -14 -12 -26 -7 -26 5 0 7 -9 4 -20 -3 -11 0 -20 6 -20 6 0 11 -5 11 -11 0
-6 6 -17 14 -24 10 -11 16 -11 27 -2 11 10 11 9 0 -5 -7 -9 -10 -22 -6 -29 6
-8 10 -7 16 2 7 11 9 11 9 1 0 -10 5 -10 21 -1 15 8 19 8 15 0 -4 -6 -2 -11 3
-11 6 0 11 -4 11 -10 0 -6 -3 -9 -7 -8 -5 0 -16 -2 -25 -6 -23 -10 -54 -3 -50
13 1 7 -2 10 -7 6 -7 -4 -6 -15 2 -32 9 -21 9 -27 -1 -31 -7 -2 -10 -7 -7 -12
3 -4 -7 -16 -21 -25 -15 -9 -24 -13 -20 -7 9 15 -20 22 -34 9 -10 -9 -11 -9
-6 0 3 6 -2 16 -11 22 -11 6 -13 11 -5 11 7 0 10 5 6 12 -5 7 -3 8 6 3 10 -6
12 -4 7 8 -3 9 -1 19 5 23 6 4 8 3 5 -3 -4 -6 0 -19 8 -29 13 -18 14 -18 12 6
-2 38 -18 50 -39 30 -17 -15 -23 -37 -20 -71 1 -10 20 -22 47 -31 24 -8 42
-12 40 -7 -3 4 0 11 6 15 7 4 9 3 6 -2 -3 -6 3 -29 14 -53 18 -41 20 -43 37
-27 21 19 32 20 32 5 0 -5 -4 -8 -9 -5 -10 6 -25 -24 -16 -32 3 -3 5 1 5 8 0
7 3 10 7 7 3 -4 13 -1 21 6 13 9 14 9 8 0 -4 -7 -2 -13 4 -13 22 0 -24 -51
-52 -57 -15 -3 -28 -9 -28 -14 0 -5 -9 -9 -20 -9 -11 0 -20 -4 -20 -10 0 -5
-3 -9 -7 -8 -25 5 -83 -16 -84 -31 0 -10 -2 -11 -6 -4 -3 10 -11 9 -34 -2 -16
-9 -29 -14 -30 -13 -6 24 -5 39 3 45 7 4 8 1 3 -8 -6 -11 -5 -11 4 -3 7 6 13
18 14 25 2 8 6 20 10 27 5 6 4 12 -2 12 -6 0 -8 6 -5 14 6 16 -23 49 -37 41
-5 -4 -9 -1 -9 4 0 6 -16 11 -36 11 -19 0 -33 -4 -30 -9 4 -5 -3 -7 -14 -4
-11 3 -20 12 -20 20 0 19 112 197 187 296 87 116 225 270 251 282 12 5 22 14
22 19 0 20 74 86 96 86 13 0 30 7 38 16 21 21 20 30 -1 13 -10 -7 -5 1 11 19
17 18 34 32 40 32 5 0 1 -6 -10 -14 -13 -10 -14 -14 -4 -13 26 4 42 18 36 33
-3 8 0 13 6 11 7 -1 13 4 14 11 2 19 4 22 9 22 3 0 4 -6 3 -12z m82 -2 c0 -2
-8 -10 -17 -17 -16 -13 -17 -12 -4 4 13 16 21 21 21 13z m357 -31 c0 -8 -4
-15 -9 -15 -10 0 -11 14 -1 23 9 10 10 9 10 -8z m-371 -47 c3 -4 -1 -5 -10 -4
-8 1 -18 5 -22 8 -3 4 1 5 10 4 8 -1 18 -5 22 -8z m214 8 c0 -3 -4 -8 -10 -11
-5 -3 -10 -1 -10 4 0 6 5 11 10 11 6 0 10 -2 10 -4z m3460 -6 c0 -5 -2 -10 -4
-10 -3 0 -8 5 -11 10 -3 6 -1 10 4 10 6 0 11 -4 11 -10z m-3506 -11 c8 7 12 5
12 -7 0 -14 -9 -18 -37 -17 -41 0 -57 9 -38 21 7 4 10 3 6 -3 -4 -6 3 -10 17
-10 14 0 23 5 22 11 -2 6 -1 7 2 3 2 -4 9 -3 16 2z m3426 -39 c6 -11 7 -20 3
-19 -17 3 -33 -1 -32 -8 1 -5 1 -15 0 -23 -1 -13 -3 -13 -10 -1 -11 17 8 53
23 44 5 -4 7 1 3 10 -9 24 0 21 13 -3z m-65 -9 c-3 -6 -11 -11 -16 -11 -5 0
-4 6 3 14 14 16 24 13 13 -3z m-3385 2 c0 -5 -5 -15 -10 -23 -7 -12 -9 -10 -7
8 1 19 17 33 17 15z m30 3 c0 -3 -4 -8 -10 -11 -5 -3 -10 -1 -10 4 0 6 5 11
10 11 6 0 10 -2 10 -4z m-83 -21 c0 -8 -4 -12 -9 -9 -5 3 -6 10 -3 15 9 13 12
11 12 -6z m-3 -40 c12 -11 32 -28 46 -38 14 -10 19 -15 13 -12 -8 4 -13 0 -13
-9 0 -10 8 -15 23 -13 19 2 22 -2 20 -31 -2 -27 1 -31 12 -22 9 8 15 8 20 0 4
-6 15 -8 24 -5 10 3 25 -3 34 -13 16 -18 16 -19 -13 -17 -24 1 -30 -2 -25 -14
4 -11 0 -10 -16 5 -20 17 -22 17 -16 1 6 -17 6 -17 -17 0 -13 10 -20 20 -15
22 6 1 2 9 -8 17 -24 18 -38 18 -23 -1 10 -12 10 -18 -1 -32 -12 -15 -12 -16
3 -11 9 4 24 0 35 -7 10 -8 13 -15 8 -15 -6 0 -16 5 -23 12 -16 16 -16 -4 1
-21 10 -11 9 -12 -1 -6 -8 4 -23 -1 -35 -12 l-22 -18 19 23 c15 17 17 25 8 34
-9 9 -12 8 -12 -7 0 -17 -1 -17 -12 -3 -7 9 -20 18 -28 22 -8 3 -2 4 14 0 26
-5 28 -3 16 11 -7 9 -19 14 -27 11 -8 -3 -11 -1 -8 4 3 6 2 10 -3 10 -5 0 -9
7 -9 15 0 8 4 12 9 9 4 -3 8 -1 8 4 0 10 -50 37 -63 33 -5 -1 -6 3 -3 8 4 5 1
11 -6 13 -17 6 -18 55 -1 55 7 0 13 -4 13 -9 0 -5 4 -7 10 -3 5 3 6 13 3 23
-6 16 -6 16 11 0 28 -29 42 -20 15 9 -26 29 -2 15 35 -22z m39 -5 c-3 -3 -8 1
-10 8 -3 6 -9 10 -14 7 -5 -4 -6 1 -3 10 6 14 8 14 19 -2 8 -10 11 -20 8 -23z
m67 20 c0 -5 -4 -10 -10 -10 -5 0 -10 5 -10 10 0 6 5 10 10 10 6 0 10 -4 10
-10z m3348 -25 c-3 -3 -9 2 -12 12 -6 14 -5 15 5 6 7 -7 10 -15 7 -18z m-3333
-16 c-2 -24 1 -29 14 -25 14 6 15 5 0 -6 -9 -7 -14 -18 -12 -25 2 -6 -1 -14
-7 -18 -7 -4 -9 2 -6 19 3 16 0 26 -7 26 -8 0 -8 3 -2 8 6 4 10 14 10 22 -1
15 3 30 9 30 2 0 2 -14 1 -31z m45 4 c0 9 4 17 10 17 6 0 5 -10 -2 -25 -10
-23 -12 -23 -24 -7 -7 9 -14 21 -14 26 0 6 7 1 15 -10 13 -17 14 -17 15 -1z
m-95 -3 c3 -6 -1 -7 -9 -4 -18 7 -21 14 -7 14 6 0 13 -4 16 -10z m138 -34 c-6
-10 -13 -12 -23 -6 -13 8 -12 10 3 10 9 0 17 5 17 12 0 6 3 9 6 5 3 -3 2 -12
-3 -21z m3554 -3 c4 -10 10 -21 15 -24 5 -3 3 -18 -3 -33 -11 -22 -14 -24 -21
-11 -5 8 -6 20 -3 25 4 6 1 9 -7 8 -7 -2 -13 3 -12 10 3 36 5 42 14 42 6 0 14
-8 17 -17z m-3571 -25 c4 -7 3 -8 -4 -4 -7 4 -12 1 -12 -8 0 -9 -5 -16 -10
-16 -7 0 -7 6 0 20 12 23 16 24 26 8z m37 -19 c-8 -8 -13 -7 -18 2 -6 8 -4 10
5 4 10 -6 12 -4 6 11 -6 15 -5 17 5 7 9 -10 10 -16 2 -24z m-83 6 c0 -8 -4
-15 -10 -15 -5 0 -7 7 -4 15 4 8 8 15 10 15 2 0 4 -7 4 -15z m60 -25 c0 -5 -4
-10 -10 -10 -5 0 -10 5 -10 10 0 6 5 10 10 10 6 0 10 -4 10 -10z m3740 -46 c0
-1 -6 -9 -13 -16 -7 -7 -20 -25 -29 -40 -18 -27 -58 -35 -58 -12 0 17 64 71
83 71 10 0 17 -2 17 -3z m-4055 -34 c3 -6 -1 -7 -9 -4 -18 7 -21 14 -7 14 6 0
13 -4 16 -10z m-226 -13 c-2 -1 -13 -9 -24 -17 -19 -14 -19 -14 -6 3 7 9 18
17 24 17 6 0 8 -1 6 -3z m-4 -55 c-3 -3 -11 0 -18 7 -9 10 -8 11 6 5 10 -3 15
-9 12 -12z m210 8 c-3 -5 -12 -10 -18 -10 -7 0 -6 4 3 10 19 12 23 12 15 0z
m110 1 c3 -5 2 -12 -3 -15 -5 -3 -9 1 -9 9 0 17 3 19 12 6z m-378 -16 c0 -8
-4 -12 -9 -9 -5 3 -6 10 -3 15 9 13 12 11 12 -6z m4325 -27 c-7 -7 -12 -8 -12
-2 0 14 12 26 19 19 2 -3 -1 -11 -7 -17z m-4031 -5 c13 -16 12 -17 -3 -4 -10
7 -18 15 -18 17 0 8 8 3 21 -13z m4000 -6 c-10 -9 -11 -8 -5 6 3 10 9 15 12
12 3 -3 0 -11 -7 -18z m-4067 -165 c3 -5 -1 -9 -9 -9 -8 0 -12 4 -9 9 3 4 7 8
9 8 2 0 6 -4 9 -8z m4017 -36 c-6 -7 -8 -15 -5 -18 3 -3 -10 -16 -28 -28 l-33
-22 25 22 c14 12 24 29 22 36 -2 8 2 14 8 14 6 0 8 5 4 12 -4 7 -3 8 5 4 8 -6
9 -12 2 -20z m-4210 -13 c13 -16 12 -17 -3 -4 -10 7 -18 15 -18 17 0 8 8 3 21
-13z m163 -32 c3 -5 -2 -15 -12 -22 -15 -12 -16 -12 -5 2 7 9 10 19 6 22 -3 4
-4 7 0 7 3 0 8 -4 11 -9z m-311 -37 c-4 -12 -8 -13 -14 -3 -9 15 -2 32 11 24
5 -3 6 -13 3 -21z m-408 -44 c3 -5 1 -10 -4 -10 -6 0 -11 5 -11 10 0 6 2 10 4
10 3 0 8 -4 11 -10z m38 -97 c-6 -16 -5 -17 13 -3 18 14 18 14 4 -4 -14 -18
-13 -19 2 -13 10 3 20 1 24 -5 4 -7 3 -8 -5 -4 -7 4 -15 -2 -20 -16 -10 -23
-10 -23 -10 -1 -1 12 -5 25 -11 28 -13 8 -13 35 0 35 5 0 6 -8 3 -17z m-34
-20 c-3 -21 2 -26 12 -13 8 12 10 12 7 1 -6 -21 -37 -23 -33 -2 5 22 4 21 10
21 3 0 4 -3 4 -7z m375 -1 c3 -5 -1 -9 -9 -9 -8 0 -12 4 -9 9 3 4 7 8 9 8 2 0
6 -4 9 -8z m-452 -9 c-6 -2 -10 -8 -7 -13 7 -11 -22 -7 -32 5 -4 4 -3 5 4 1 6
-3 14 -2 18 4 3 5 12 10 18 9 9 0 8 -2 -1 -6z m228 -23 c-6 -11 -13 -20 -16
-20 -2 0 0 9 6 20 6 11 13 20 16 20 2 0 0 -9 -6 -20z m81 3 c12 -16 12 -17 -2
-6 -9 7 -20 9 -24 5 -5 -4 -5 -1 -1 6 9 16 11 15 27 -5z m53 1 c3 -8 11 -12
17 -8 8 4 9 3 5 -5 -6 -9 -11 -9 -23 1 -14 11 -15 10 -9 -12 l7 -25 -15 25
c-14 24 -13 40 4 40 4 0 11 -7 14 -16z m56 10 c0 -8 -19 -13 -24 -6 -3 5 1 9
9 9 8 0 15 -2 15 -3z m-240 -30 c0 -2 -9 0 -20 6 -11 6 -20 13 -20 16 0 2 9 0
20 -6 11 -6 20 -13 20 -16z m4660 -62 c37 -87 90 -237 90 -252 0 -20 -25 -4
-46 28 -20 31 -24 68 -9 91 7 13 -12 53 -32 64 -19 12 -55 97 -49 114 3 8 1
11 -4 8 -11 -7 -14 18 -4 28 12 12 22 -3 54 -81z m-4920 56 c-10 -10 -23 -26
-29 -35 -16 -29 -19 -11 -5 24 9 22 20 31 33 30 20 -1 20 -2 1 -19z m360 -25
c0 -3 -3 -3 -7 0 -3 4 -12 -2 -20 -13 -8 -11 -18 -20 -24 -20 -5 0 0 9 11 20
12 12 18 26 14 31 -4 8 -9 7 -15 -2 -10 -16 -12 -8 -3 14 5 13 8 13 25 -4 10
-10 19 -22 19 -26z m-222 12 c-3 -3 -9 2 -12 12 -6 14 -5 15 5 6 7 -7 10 -15
7 -18z m4720 -35 c12 -27 17 -52 12 -55 -10 -6 -39 33 -44 61 -3 11 -7 27 -11
37 -5 13 -3 16 8 11 8 -3 24 -27 35 -54z m-4445 35 c4 -8 2 -17 -4 -21 -7 -4
-6 -10 1 -19 8 -10 8 -15 -2 -21 -7 -4 -10 -4 -6 1 9 9 -9 35 -24 35 -6 0 -5
-7 2 -15 11 -13 10 -14 -4 -9 -22 8 -20 21 4 34 11 6 18 15 15 21 -4 5 -2 9 3
9 6 0 12 -7 15 -15z m-382 -28 c-10 -9 -11 -8 -5 6 3 10 9 15 12 12 3 -3 0
-11 -7 -18z m101 9 c6 4 6 -1 -1 -13 -6 -11 -7 -23 -3 -27 3 -4 -1 -4 -10 -1
-9 4 -19 14 -22 22 -6 14 -4 14 10 2 15 -12 16 -11 11 11 -4 14 -4 19 -1 12 3
-6 10 -9 16 -6z m4528 10 c0 -3 -4 -8 -10 -11 -5 -3 -10 -1 -10 4 0 6 5 11 10
11 6 0 10 -2 10 -4z m-4814 -13 c-10 -11 -37 -12 -30 -2 3 5 12 9 21 9 9 0 13
-3 9 -7z m4725 -16 c-10 -9 -11 -8 -5 6 3 10 9 15 12 12 3 -3 0 -11 -7 -18z
m-4357 -3 c3 -8 2 -12 -4 -9 -6 3 -10 10 -10 16 0 14 7 11 14 -7z m37 -7 c-10
-9 -11 -8 -5 6 3 10 9 15 12 12 3 -3 0 -11 -7 -18z m4379 19 c0 -3 -4 -8 -10
-11 -5 -3 -10 -1 -10 4 0 6 5 11 10 11 6 0 10 -2 10 -4z m85 -6 c3 -5 1 -10
-4 -10 -6 0 -11 5 -11 10 0 6 2 10 4 10 3 0 8 -4 11 -10z m90 -10 c-3 -5 -1
-11 5 -15 6 -4 8 -11 4 -16 -3 -5 -9 -7 -14 -4 -15 9 -22 -15 -10 -30 10 -12
9 -15 -9 -15 -12 0 -21 6 -21 15 0 21 34 84 43 78 4 -2 5 -8 2 -13z m-49 -10
c0 -12 -4 -16 -9 -11 -5 5 -6 14 -3 20 10 15 12 14 12 -9z m-4849 2 c9 -6 7
-11 -6 -19 -14 -9 -20 -7 -29 8 -10 16 -9 19 5 19 10 0 23 -4 30 -8z m4733 -7
c-10 -12 -10 -18 1 -32 12 -17 12 -17 -6 -1 -15 14 -16 20 -5 32 7 9 15 16 17
16 3 0 0 -7 -7 -15z m-4445 -4 c3 -5 2 -12 -3 -15 -5 -3 -9 1 -9 9 0 17 3 19
12 6z m4520 0 c3 -5 2 -12 -3 -15 -5 -3 -9 1 -9 9 0 17 3 19 12 6z m-4724 -24
c-10 -9 -11 -8 -5 6 3 10 9 15 12 12 3 -3 0 -11 -7 -18z m113 15 c2 -4 -4 -8
-14 -8 -10 0 -16 4 -14 8 3 4 9 8 14 8 5 0 11 -4 14 -8z m4573 -17 c0 -8 -4
-12 -9 -9 -5 3 -6 10 -3 15 9 13 12 11 12 -6z m-4434 -15 c-6 -21 -25 -28 -20
-7 2 10 16 26 24 27 0 0 -1 -9 -4 -20z m73 -11 c0 -10 -4 -16 -7 -13 -4 2 -10
0 -14 -6 -3 -5 -12 -10 -18 -10 -7 0 -4 7 7 15 10 7 16 18 12 23 -3 5 0 9 7 9
7 0 13 -8 13 -18z m4427 4 c-7 -3 -9 -12 -6 -21 3 -9 3 -14 -1 -11 -4 4 -8 16
-11 27 -3 16 0 19 13 15 9 -4 11 -8 5 -10z m-4610 -8 c4 -8 3 -16 -1 -19 -4
-3 -9 4 -9 15 -2 23 3 25 10 4z m241 4 c-4 -7 -44 0 -44 7 0 2 11 3 24 2 14
-1 23 -5 20 -9z m-394 -35 c0 -8 -4 -14 -8 -14 -4 0 -8 9 -8 19 0 11 4 17 8
15 4 -3 8 -12 8 -20z m269 0 c-12 -15 -11 -16 11 -10 l25 8 -23 -17 c-13 -9
-21 -23 -18 -30 3 -9 -2 -11 -15 -8 -18 5 -19 6 -2 18 10 8 15 17 11 20 -4 4
-3 16 3 27 6 11 13 17 16 14 3 -3 0 -13 -8 -22z m4444 3 c4 3 7 1 7 -6 0 -7
-6 -11 -14 -8 -8 3 -17 3 -19 -1 -2 -4 -3 -2 -1 4 1 6 -3 18 -9 25 -7 7 -3 6
9 -4 11 -9 24 -14 27 -10z m-4628 -8 c0 -5 4 -9 9 -8 5 0 13 -6 18 -15 6 -11
0 -24 -24 -46 -27 -25 -29 -30 -12 -25 15 4 24 0 28 -10 3 -9 2 -13 -4 -10 -6
3 -10 -1 -10 -10 0 -9 4 -14 9 -11 5 3 12 -1 15 -9 4 -13 2 -14 -14 -5 -11 6
-20 17 -20 25 0 8 -5 15 -11 15 -5 0 -8 -4 -5 -9 5 -8 -2 -8 -33 -2 -2 1 2 7
8 14 6 8 8 17 4 20 -3 4 0 13 6 21 7 8 9 21 5 28 -4 7 2 5 13 -5 18 -16 21
-16 34 -1 11 14 10 15 -6 12 -14 -2 -19 4 -20 25 -1 15 1 25 4 21 3 -3 6 -10
6 -15z m112 14 c-4 -3 0 -18 9 -32 9 -14 11 -20 3 -13 -21 20 -27 14 -23 -28
2 -21 -1 -42 -5 -45 -5 -3 -7 4 -4 15 3 12 0 20 -6 20 -7 0 -9 -5 -5 -12 4 -7
-2 -5 -13 5 -19 17 -33 14 -33 -6 0 -6 3 -7 7 -4 8 9 33 -12 33 -27 0 -6 -7
-2 -15 8 -10 13 -15 15 -15 6 0 -9 -4 -8 -14 5 -12 16 -9 22 28 50 24 19 40
38 38 48 -2 9 3 17 9 17 7 0 9 -3 6 -7z m-46 -36 c-13 -12 -21 -17 -17 -10 3
6 0 13 -6 16 -7 2 -9 8 -5 13 4 5 12 2 17 -6 7 -12 10 -12 16 3 3 10 9 15 12
12 3 -3 -5 -16 -17 -28z m74 23 c-3 -5 -1 -10 4 -10 6 0 11 -5 11 -11 0 -8 -5
-8 -15 1 -17 14 -20 30 -4 30 5 0 7 -4 4 -10z m111 -9 c-15 -10 -27 -22 -26
-27 0 -5 -6 -10 -14 -12 -9 -2 -16 1 -16 7 0 6 7 7 17 4 11 -4 14 -3 9 5 -4 7
-1 15 8 18 9 3 14 9 12 13 -3 4 5 8 17 8 19 2 18 0 -7 -16z m4485 10 c7 11 9
11 9 -2 0 -26 -26 -31 -27 -5 0 11 1 15 4 7 5 -11 7 -11 14 0z m-4816 -21 c8
7 15 11 16 9 7 -37 7 -40 -6 -29 -10 8 -15 6 -20 -9 -6 -20 -8 -20 -31 -4 -14
8 -22 18 -19 21 3 3 11 0 17 -6 21 -21 32 -13 12 10 -15 19 -16 20 -1 9 14
-11 20 -11 32 -1z m375 4 c0 -8 -19 -13 -24 -6 -3 5 1 9 9 9 8 0 15 -2 15 -3z
m4467 -11 c-4 -3 -2 -12 5 -20 6 -7 7 -17 3 -21 -4 -4 -10 -1 -12 6 -3 6 -9 9
-15 6 -6 -4 -5 2 1 15 7 11 15 21 18 21 3 0 3 -3 0 -7z m-4888 -42 c11 -11 22
-16 26 -13 3 4 3 -2 -1 -13 -7 -18 -6 -19 12 -5 19 14 19 14 0 -8 -15 -17 -16
-22 -5 -23 10 0 11 -2 1 -6 -6 -2 -9 -9 -6 -14 3 -6 -1 -20 -9 -32 -8 -12 -13
-31 -11 -42 2 -10 -1 -24 -5 -30 -4 -5 -7 -17 -6 -25 1 -8 -5 -32 -12 -54 -7
-21 -10 -42 -7 -47 10 -17 -3 -9 -22 13 -16 18 -16 20 -2 15 13 -5 16 -1 12
21 -3 21 -2 23 6 12 8 -13 10 -12 10 4 0 13 -5 16 -17 12 -15 -5 -15 -4 1 9
14 11 16 15 5 15 -9 0 -10 3 -3 8 8 5 13 87 4 87 -1 0 -3 8 -5 18 -3 15 -1 16
11 6 9 -7 14 -8 14 -1 0 6 -5 14 -10 17 -6 4 -8 12 -4 18 3 7 -2 3 -12 -8 -12
-14 -15 -16 -11 -4 3 9 1 21 -4 26 -12 12 5 63 21 63 5 0 19 -9 29 -19z m265
3 c7 -19 0 -34 -17 -34 -7 0 -6 4 3 11 11 8 12 12 3 16 -15 5 -17 23 -4 23 5
0 12 -7 15 -16z m67 -21 c13 -17 13 -17 -6 -3 -11 8 -22 16 -24 17 -2 2 0 3 6
3 6 0 17 -8 24 -17z m4659 3 c0 -2 -7 -6 -15 -10 -8 -3 -15 -1 -15 4 0 6 7 10
15 10 8 0 15 -2 15 -4z m-4675 -35 c-1 -11 -5 -24 -9 -28 -4 -5 -6 -2 -4 6 2
7 -5 15 -15 16 -23 4 -38 18 -17 15 29 -4 41 0 34 12 -4 6 -3 8 3 5 5 -3 9
-15 8 -26z m-135 -11 c0 -5 -4 -10 -10 -10 -5 0 -10 5 -10 10 0 6 5 10 10 10
6 0 10 -4 10 -10z m49 -16 c-9 -11 -8 -18 1 -29 7 -8 16 -12 21 -9 16 9 10 -3
-8 -17 -11 -10 -14 -10 -9 -1 4 6 3 12 -3 12 -5 0 -12 -6 -15 -12 -3 -7 -3 -3
0 10 3 12 1 22 -4 22 -16 0 -20 -23 -10 -45 l9 -20 -16 20 c-9 11 -20 20 -25
20 -19 0 -21 15 -4 32 16 16 17 16 11 1 -3 -10 -2 -20 2 -23 10 -6 22 19 17
38 -1 6 -1 9 1 5 8 -14 25 -8 20 6 -4 10 -1 13 9 9 11 -4 12 -9 3 -19z m-129
-1 c8 -1 16 -7 18 -13 2 -5 9 -7 15 -3 7 3 9 2 4 -2 -4 -5 0 -19 8 -32 18 -27
11 -50 -10 -33 -11 9 -14 7 -12 -9 1 -12 6 -20 12 -17 6 2 16 -4 23 -14 10
-17 9 -17 -19 -3 -17 8 -33 13 -36 9 -3 -3 6 -10 20 -17 17 -8 24 -19 23 -34
0 -13 -4 -21 -8 -19 -4 2 -9 0 -13 -6 -3 -5 -1 -10 4 -10 6 0 11 -5 11 -12 0
-6 -3 -8 -7 -5 -11 11 -32 -14 -26 -31 4 -15 3 -15 -6 -2 -10 13 -12 13 -20 0
-5 -8 -7 -18 -4 -24 3 -5 1 -6 -5 -2 -7 4 -12 1 -12 -9 0 -11 -5 -15 -14 -12
-7 3 -19 0 -25 -6 -9 -9 -11 -8 -5 6 4 10 13 16 21 13 8 -3 12 -2 9 3 -3 5 1
12 10 15 9 4 14 13 10 22 -4 10 -2 13 6 8 6 -4 8 -3 4 4 -3 6 -2 13 3 17 14 8
3 32 -14 32 -8 0 -15 -4 -15 -9 0 -4 5 -8 10 -8 7 0 7 -6 2 -17 -5 -10 -7 -24
-5 -30 3 -7 1 -13 -4 -14 -4 0 -21 -2 -38 -4 -16 -2 -21 -1 -11 2 15 4 16 7 5
14 -12 7 -12 9 1 9 13 0 13 1 0 10 -11 7 -11 10 -2 10 7 0 10 5 6 12 -4 6 -3
8 4 4 6 -3 9 -15 7 -25 -2 -10 2 -18 9 -18 7 0 10 12 8 34 -2 18 -8 31 -12 28
-5 -3 -12 0 -16 6 -4 7 -3 9 3 6 6 -4 11 4 11 21 0 47 6 72 16 72 5 0 6 3 3 7
-4 3 3 17 15 30 20 21 15 33 -8 16 -5 -5 -1 0 9 10 11 9 14 17 8 17 -6 0 -11
5 -11 11 0 6 5 7 13 2 6 -4 19 -8 27 -10z m-143 -35 c8 -53 4 -100 -10 -114
-3 -4 -2 -15 4 -25 8 -17 6 -20 -21 -26 -21 -4 -27 -8 -19 -14 7 -4 16 -6 21
-3 17 11 40 -45 34 -83 -25 -148 -31 -245 -31 -470 0 -138 -3 -213 -10 -213
-5 0 -4 -4 4 -9 10 -6 15 -28 15 -65 1 -31 4 -56 9 -56 4 0 7 -7 7 -15 0 -8
-5 -15 -11 -15 -5 0 -7 5 -3 12 4 7 3 8 -4 4 -6 -4 -9 -13 -6 -21 4 -8 10 -13
14 -10 5 3 7 -3 6 -12 -2 -10 -8 -19 -14 -19 -25 -3 -27 -5 -12 -14 8 -5 11
-12 7 -17 -10 -10 -26 15 -22 36 1 9 8 15 15 13 6 -1 8 2 5 8 -4 6 -13 9 -20
6 -13 -5 -13 -7 -42 174 -24 146 -23 556 1 685 9 50 18 100 19 112 1 11 6 19
10 16 4 -2 6 7 3 21 -3 15 -1 24 4 21 5 -3 11 -1 14 4 4 5 2 12 -4 16 -10 6
-8 39 5 88 8 32 26 23 32 -15z m323 28 c0 -3 -4 -8 -10 -11 -5 -3 -10 -1 -10
4 0 6 5 11 10 11 6 0 10 -2 10 -4z m20 -10 c0 -2 -8 -10 -17 -17 -16 -13 -17
-12 -4 4 13 16 21 21 21 13z m4776 -42 c1 -9 0 -13 -4 -10 -3 4 -7 14 -8 22
-1 9 0 13 4 10 3 -4 7 -14 8 -22z m-4880 -47 c1 -9 -2 -15 -7 -11 -5 3 -7 10
-4 15 4 5 1 9 -4 9 -6 0 -11 -5 -11 -12 0 -6 -3 -9 -6 -5 -9 9 6 29 19 24 5
-1 11 -11 13 -20z m4974 17 c0 -8 -19 -13 -24 -6 -3 5 1 9 9 9 8 0 15 -2 15
-3z m-4955 -83 c3 -5 2 -12 -3 -15 -5 -3 -9 1 -9 9 0 17 3 19 12 6z m4982 -73
c2 -17 0 -19 -7 -8 -5 8 -6 18 -4 22 8 12 10 10 11 -14z m-5192 -61 c0 -7 8
-11 18 -9 9 2 17 -2 17 -8 0 -6 -4 -9 -9 -5 -5 3 -12 1 -16 -5 -3 -5 1 -10 11
-10 13 0 14 -3 5 -14 -10 -11 -8 -17 6 -26 16 -10 16 -11 1 -6 -22 7 -42 -30
-52 -92 -5 -32 -3 -42 5 -36 9 5 10 2 6 -9 -4 -12 -1 -17 11 -17 15 0 15 -2 2
-10 -10 -6 -11 -10 -2 -10 6 0 12 -5 12 -12 0 -6 10 -22 21 -34 12 -13 23 -37
25 -54 2 -17 7 -37 11 -43 4 -8 2 -8 -9 1 -12 10 -18 10 -28 -2 -6 -9 -9 -20
-5 -26 3 -5 -1 -10 -9 -10 -20 0 -21 -25 -3 -42 8 -7 12 -21 9 -32 -4 -15 -2
-18 13 -12 16 6 16 4 4 -10 -13 -16 -12 -16 6 -7 11 6 40 9 65 7 24 -1 49 1
55 6 7 6 10 0 9 -18 -3 -45 -3 -46 -23 -28 -22 20 -61 29 -61 14 0 -6 -3 -8
-7 -5 -3 4 -13 1 -21 -6 -13 -10 -15 -9 -9 6 6 15 4 16 -13 7 -20 -11 -27 -21
-12 -19 19 3 25 -2 12 -11 -12 -8 -9 -9 10 -6 14 2 24 8 23 13 -1 5 11 9 27 8
15 0 26 -3 24 -7 -3 -4 2 -5 10 -2 20 8 21 -10 1 -26 -8 -7 -15 -9 -15 -5 0 4
-7 2 -15 -5 -8 -7 -12 -17 -8 -24 4 -7 1 -6 -9 1 -8 7 -18 10 -21 6 -4 -3 1
-12 11 -20 15 -13 15 -13 -5 -4 -13 7 -20 18 -18 29 2 12 -3 18 -15 18 -14 0
-16 -3 -8 -13 13 -17 -4 -17 -21 0 -9 8 -12 8 -7 0 3 -6 1 -13 -6 -16 -7 -2
-5 -3 5 -2 20 4 23 -11 3 -18 -8 -3 -25 3 -38 14 -22 20 -23 26 -24 192 -2
146 12 344 30 437 2 14 5 29 5 34 1 13 16 -3 16 -17z m5035 -1 c0 -3 -4 -8
-10 -11 -5 -3 -10 -1 -10 4 0 6 5 11 10 11 6 0 10 -2 10 -4z m107 -70 c-3 -8
-2 -16 2 -18 15 -5 22 -86 26 -295 3 -145 1 -204 -7 -209 -6 -4 -8 -3 -4 4 3
5 1 12 -6 14 -7 3 -13 22 -14 44 -2 54 -3 56 -13 50 -21 -13 -29 26 -31 144
-1 69 -3 142 -5 164 -4 40 6 68 34 98 20 21 25 22 18 4z m-112 -25 c3 -5 2
-12 -3 -15 -5 -3 -9 1 -9 9 0 17 3 19 12 6z m-4981 -18 c4 -11 1 -11 -14 -3
-24 13 -25 17 -5 17 8 0 16 -6 19 -14z m-39 -12 c-3 -5 -1 -12 5 -16 5 -3 10
-11 10 -18 0 -6 -6 -2 -14 8 -13 18 -13 35 0 35 3 0 3 -4 -1 -9z m65 -19 c0
-4 -10 -9 -22 -9 -18 -2 -20 0 -8 7 18 12 30 13 30 2z m4940 4 c0 -3 -4 -8
-10 -11 -5 -3 -10 -1 -10 4 0 6 5 11 10 11 6 0 10 -2 10 -4z m35 -6 c19 16 22
-8 23 -163 1 -90 -3 -139 -10 -143 -7 -4 -8 -3 -4 4 4 7 1 12 -6 12 -9 0 -9 3
2 10 8 5 10 10 3 10 -6 0 -10 8 -8 18 3 20 -14 44 -26 36 -5 -3 -9 2 -9 10 0
8 -6 21 -13 28 -31 33 -46 65 -34 77 6 6 7 11 3 11 -5 0 -3 7 4 15 7 8 9 15 5
15 -4 0 4 9 19 21 14 11 26 28 27 37 0 11 2 13 6 4 3 -9 9 -10 18 -2z m-5035
-34 c0 -2 -7 -7 -16 -10 -8 -3 -12 -2 -9 4 6 10 25 14 25 6z m100 -6 c0 -5 -5
-10 -11 -10 -5 0 -7 5 -4 10 3 6 8 10 11 10 2 0 4 -4 4 -10z m-69 -23 c-10 -9
-11 -8 -5 6 3 10 9 15 12 12 3 -3 0 -11 -7 -18z m30 0 c-10 -9 -11 -8 -5 6 3
10 9 15 12 12 3 -3 0 -11 -7 -18z m35 -143 c1 -9 0 -13 -4 -10 -3 4 -7 14 -8
22 -1 9 0 13 4 10 3 -4 7 -14 8 -22z m4921 -36 c-3 -8 -6 -5 -6 6 -1 11 2 17
5 13 3 -3 4 -12 1 -19z m-4923 4 c3 -5 -1 -9 -9 -9 -8 0 -12 4 -9 9 3 4 7 8 9
8 2 0 6 -4 9 -8z m4903 -33 c-1 -10 -4 -16 -8 -13 -4 2 -9 -1 -11 -8 -3 -7 -7
-5 -11 6 -5 11 -3 15 5 10 7 -5 9 -2 6 8 -4 8 0 15 7 15 8 0 13 -8 12 -18z
m-4959 -14 c-3 -3 -9 2 -12 12 -6 14 -5 15 5 6 7 -7 10 -15 7 -18z m4919 -12
c13 -20 18 -21 32 -11 14 11 14 11 4 -3 -7 -9 -9 -20 -5 -25 4 -4 -1 -2 -10 5
-16 12 -18 10 -14 -17 2 -22 0 -29 -10 -25 -7 3 -12 10 -11 15 1 6 -4 13 -12
16 -9 3 -11 0 -6 -8 6 -9 3 -9 -14 -1 -20 11 -29 24 -13 19 4 -2 17 6 29 17
l22 21 -27 1 c-15 1 -22 -1 -15 -3 7 -3 9 -12 6 -20 -3 -7 -9 -11 -14 -8 -5 3
-6 10 -3 16 4 6 3 8 -3 5 -9 -6 -10 -24 -4 -60 0 -5 5 -6 10 -2 5 3 13 0 17
-6 4 -8 3 -9 -4 -5 -7 4 -12 2 -12 -5 0 -26 -20 7 -24 39 -3 17 -7 36 -10 41
-3 5 2 8 12 7 9 0 16 4 15 10 -3 20 49 10 64 -13z m-4907 -18 c-7 -8 -17 -15
-23 -15 -6 0 -2 7 9 15 25 19 30 19 14 0z m35 -25 c3 -6 -1 -7 -9 -4 -18 7
-21 14 -7 14 6 0 13 -4 16 -10z m60 0 c3 -6 -1 -7 -9 -4 -18 7 -21 14 -7 14 6
0 13 -4 16 -10z m47 -62 c-7 -7 -12 -8 -12 -2 0 14 12 26 19 19 2 -3 -1 -11
-7 -17z m4728 2 c0 -5 -5 -10 -11 -10 -5 0 -7 5 -4 10 3 6 8 10 11 10 2 0 4
-4 4 -10z m120 0 c0 -5 -2 -10 -4 -10 -3 0 -8 5 -11 10 -3 6 -1 10 4 10 6 0
11 -4 11 -10z m50 -75 c0 -2 -6 -5 -13 -8 -8 -3 -14 1 -14 8 0 7 6 11 14 8 7
-3 13 -6 13 -8z m23 -22 c-20 -8 -15 -22 6 -18 15 3 18 0 14 -13 -4 -10 -8
-12 -11 -4 -2 7 -8 10 -13 6 -5 -3 -12 2 -15 10 -3 9 -11 13 -17 9 -5 -3 -7
-2 -4 3 3 5 16 10 29 11 13 0 17 -1 11 -4z m-5072 -20 c13 -16 12 -17 -3 -4
-17 13 -22 21 -14 21 2 0 10 -8 17 -17z m-37 -25 c-3 -4 -9 -8 -15 -8 -5 0 -9
4 -9 8 0 5 7 9 15 9 8 0 12 -4 9 -9z m-44 -18 c0 -5 -2 -10 -4 -10 -3 0 -8 5
-11 10 -3 6 -1 10 4 10 6 0 11 -4 11 -10z m20 -41 c0 -4 -6 -9 -13 -12 -8 -3
-14 0 -14 7 0 7 6 13 14 13 7 0 13 -4 13 -8z m60 2 c0 -6 -4 -12 -8 -15 -5 -3
-9 1 -9 9 0 8 4 15 9 15 4 0 8 -4 8 -9z m5162 -30 c-20 -21 -30 -18 -13 3 7 8
9 21 5 28 -6 10 -5 10 8 0 15 -12 15 -15 0 -31z m58 15 c0 -3 -4 -8 -10 -11
-5 -3 -10 -1 -10 4 0 6 5 11 10 11 6 0 10 -2 10 -4z m-5187 -39 c-3 -4 -6 -7
-7 -5 -1 2 -8 12 -16 22 -14 18 -14 18 7 6 12 -8 19 -18 16 -23z m5145 9 c-7
-8 -15 -12 -17 -11 -5 6 10 25 20 25 5 0 4 -6 -3 -14z m-5198 -36 c0 -4 -7 -7
-15 -6 -23 3 -26 12 -5 13 11 1 20 -2 20 -7z m700 0 c0 -5 -2 -10 -4 -10 -3 0
-8 5 -11 10 -3 6 -1 10 4 10 6 0 11 -4 11 -10z m-702 -56 c-25 -13 -59 -7 -37
6 7 5 18 6 26 3 8 -3 13 2 13 13 0 16 2 17 10 4 7 -11 3 -18 -12 -26z m722 16
c0 -5 -5 -10 -11 -10 -5 0 -7 5 -4 10 3 6 8 10 11 10 2 0 4 -4 4 -10z m4320
-16 c0 -8 -19 -13 -24 -6 -3 5 1 9 9 9 8 0 15 -2 15 -3z m60 2 c0 -2 -7 -7
-16 -10 -8 -3 -12 -2 -9 4 6 10 25 14 25 6z m-21 -65 c9 -6 6 -8 -13 -8 -14 0
-23 3 -20 8 7 11 15 11 33 0z m76 0 c3 -5 2 -12 -3 -15 -5 -3 -9 1 -9 9 0 17
3 19 12 6z m-38 -43 c-3 -8 -6 -5 -6 6 -1 11 2 17 5 13 3 -3 4 -12 1 -19z
m-5302 -28 c3 -6 -1 -7 -9 -4 -18 7 -21 14 -7 14 6 0 13 -4 16 -10z m5182 -17
c0 -9 -4 -10 -14 -2 -7 6 -13 12 -13 14 0 1 6 2 13 2 8 0 14 -6 14 -14z m157
-22 c-2 -3 -12 3 -22 13 -16 17 -16 18 5 5 12 -7 20 -15 17 -18z m-138 -23
c19 -23 19 -23 -2 -5 -11 9 -24 14 -29 10 -4 -5 -5 -2 -1 5 9 16 10 16 32 -10z
m104 18 c0 -3 -4 -8 -10 -11 -5 -3 -10 -1 -10 4 0 6 5 11 10 11 6 0 10 -2 10
-4z m-115 -44 c-3 -3 -11 0 -18 7 -9 10 -8 11 6 5 10 -3 15 -9 12 -12z m-115
-2 c8 -5 11 -10 5 -10 -5 0 -17 5 -25 10 -8 5 -10 10 -5 10 6 0 17 -5 25 -10z
m-274 -132 c20 -39 27 -45 75 -58 36 -10 41 -9 121 36 11 7 28 9 39 7 17 -5
17 -8 4 -40 -8 -20 -15 -36 -15 -38 0 -1 -6 -2 -14 -2 -7 0 -13 5 -12 11 1 6
-2 12 -6 14 -23 7 -37 -1 -46 -28 -9 -23 -8 -33 4 -45 9 -8 22 -15 30 -15 18
0 18 -4 -1 -40 -9 -17 -22 -30 -30 -30 -8 0 -15 -5 -15 -11 0 -5 -4 -8 -9 -5
-14 9 -30 -48 -20 -66 10 -18 2 -48 -12 -48 -5 0 -27 -16 -48 -36 -34 -32 -38
-41 -31 -65 6 -21 3 -35 -16 -63 -14 -20 -29 -34 -35 -31 -5 4 -9 2 -9 -4 0
-6 -7 -7 -17 -4 -11 4 -14 3 -9 -5 4 -7 2 -12 -3 -12 -6 0 -11 5 -11 11 0 5
-5 7 -11 4 -7 -5 -4 -14 7 -26 16 -18 16 -19 1 -13 -10 3 -17 1 -17 -5 0 -6 6
-11 13 -11 6 0 4 -5 -6 -11 -9 -6 -15 -14 -12 -19 8 -13 -8 -41 -66 -110 -27
-33 -56 -60 -64 -60 -8 0 -15 -7 -15 -15 0 -16 -70 -98 -77 -91 -3 2 -4 7 -3
11 2 12 -42 45 -52 39 -6 -4 -2 6 8 22 18 28 18 29 -1 14 -10 -8 -16 -10 -12
-4 4 7 0 17 -8 24 -11 9 -15 9 -15 1 0 -7 -3 -10 -7 -8 -10 6 -74 -28 -67 -36
8 -8 -34 -19 -45 -12 -13 8 -3 32 15 39 10 4 12 2 8 -6 -5 -7 -3 -8 5 -4 7 5
10 14 7 22 -3 8 -1 14 4 14 10 0 -2 48 -21 78 -12 19 -11 23 5 35 18 13 18 15
-2 55 -11 23 -17 42 -12 42 4 0 6 11 5 25 -2 14 1 23 6 19 8 -5 14 17 10 39
-1 5 3 6 9 2 10 -6 68 28 82 50 4 5 8 6 8 1 0 -4 11 -1 24 7 22 15 23 15 24
-11 0 -50 2 -52 33 -52 29 0 31 2 25 26 -5 17 -3 23 4 19 10 -6 44 20 46 37 1
4 2 11 3 14 0 4 8 1 16 -6 12 -10 15 -10 15 4 0 9 7 16 16 16 8 0 13 4 9 9 -3
5 -1 12 3 15 5 3 8 16 8 28 -3 29 12 60 25 53 5 -4 9 1 9 9 0 8 5 18 12 22 7
4 8 3 4 -4 -4 -7 -2 -12 3 -12 6 0 11 8 12 18 0 10 3 12 6 4 2 -6 9 -9 14 -6
6 3 5 12 -3 22 -12 15 -11 16 4 3 11 -8 25 -10 35 -6 10 5 22 7 27 6 5 -1 6 6
2 15 -5 14 -4 15 9 4 8 -7 21 -10 30 -7 8 4 17 2 20 -4 4 -5 11 -7 16 -3 5 3
7 9 4 14 -3 5 -1 11 4 15 6 3 8 -3 6 -15 -6 -32 25 -21 38 13 5 13 3 16 -6 11
-9 -5 -9 -4 1 7 15 16 16 33 0 23 -7 -5 -8 -3 -2 7 15 25 12 36 -10 47 -20 9
-25 6 -41 -24 -17 -31 -39 -41 -77 -35 -5 0 -8 -5 -8 -11 0 -9 -4 -8 -10 2 -7
11 -10 11 -10 2 0 -7 -4 -10 -10 -7 -5 3 -10 1 -10 -6 0 -8 -5 -7 -17 2 -14
12 -16 12 -11 -2 4 -9 1 -16 -8 -16 -7 0 -10 5 -7 11 4 6 -10 -2 -31 -18 -31
-23 -35 -24 -24 -7 7 12 16 21 21 21 4 0 5 5 2 10 -3 6 -1 10 4 10 17 0 13 43
-6 69 -9 14 -11 21 -4 17 8 -5 10 0 7 18 -3 14 0 26 5 26 5 0 9 6 8 13 -3 26
2 35 21 40 27 7 30 8 70 23 19 7 36 13 37 13 1 1 10 -14 19 -31z m368 -78
c-40 -112 -54 -141 -64 -135 -10 6 -14 -8 -11 -33 2 -8 -5 -29 -14 -47 l-15
-34 -26 26 c-14 14 -23 27 -20 30 3 3 -3 13 -13 22 -18 15 -18 19 25 116 36
84 47 99 64 97 11 -2 20 2 20 8 0 6 4 9 9 5 5 -3 12 -1 16 5 4 6 10 8 15 5 5
-3 11 -1 15 5 4 6 10 8 15 5 5 -3 -2 -37 -16 -75z m-285 -63 c8 -10 7 -14 -2
-14 -8 0 -14 6 -14 14 0 7 1 13 2 13 2 0 8 -6 14 -13z m-345 -25 c2 -4 -5 -9
-17 -9 -17 -2 -19 0 -7 7 18 12 18 12 24 2z m-4494 -48 c0 -8 -19 -13 -24 -6
-3 5 1 9 9 9 8 0 15 -2 15 -3z m-19 -70 c15 -8 16 -10 1 -24 -14 -13 -15 -12
-9 3 8 22 -9 22 -21 0 -7 -12 -9 -7 -8 21 1 26 4 33 11 23 6 -7 17 -18 26 -23z
m4604 17 c-9 -8 -36 -10 -30 -2 2 4 11 8 20 8 8 0 13 -3 10 -6z m-65 -18 c0
-5 -5 -15 -10 -23 -7 -12 -9 -10 -7 8 1 19 17 33 17 15z m-3456 -21 c3 -5 -1
-9 -9 -9 -8 0 -12 4 -9 9 3 4 7 8 9 8 2 0 6 -4 9 -8z m3290 -8 c3 -8 2 -12 -4
-9 -6 3 -10 10 -10 16 0 14 7 11 14 -7z m211 -26 c5 4 5 1 1 -6 -5 -9 -12 -9
-27 -2 -10 6 -19 13 -19 16 0 2 8 0 19 -5 10 -6 22 -7 26 -3z m-268 -13 c0 -8
-4 -12 -9 -9 -4 3 -8 9 -8 15 0 5 4 9 8 9 5 0 9 -7 9 -15z m661 3 c-2 -7 6
-13 17 -13 12 -1 19 -7 17 -15 -4 -20 -128 -233 -152 -262 l-19 -23 -1 22 c0
25 -27 56 -41 48 -5 -4 -6 2 -2 11 5 13 3 16 -10 11 -15 -6 -15 -2 3 33 19 37
30 45 54 41 5 -1 19 8 32 20 13 12 24 17 24 11 0 -8 6 -9 23 -1 28 13 30 36 5
61 -10 10 -18 15 -18 11 0 -4 -5 -2 -11 4 -21 21 8 53 46 53 23 0 34 -4 33
-12z m-773 -18 c3 -6 -1 -7 -9 -4 -18 7 -21 14 -7 14 6 0 13 -4 16 -10z
m-3886 -80 c15 -24 15 -24 -2 -11 -9 7 -17 9 -17 3 0 -5 -8 -13 -17 -16 -10
-4 -14 -4 -10 0 4 5 -3 14 -15 21 -13 7 -17 12 -9 13 7 0 11 6 8 14 -9 24 44
3 62 -24z m-319 -9 c0 -4 -10 -7 -22 -8 -13 0 -17 1 -10 4 6 3 12 9 12 14 0 6
-5 7 -12 3 -7 -4 -8 -3 -4 5 6 9 11 9 22 0 8 -6 14 -14 14 -18z m4500 15 c0
-2 -7 -7 -16 -10 -8 -3 -12 -2 -9 4 6 10 25 14 25 6z m-4462 -41 c-3 -3 -9 2
-12 12 -6 14 -5 15 5 6 7 -7 10 -15 7 -18z m4287 15 c3 -6 -1 -7 -9 -4 -18 7
-21 14 -7 14 6 0 13 -4 16 -10z m-4388 -60 c0 -16 -5 -30 -10 -30 -6 0 -7 3
-4 6 3 4 2 14 -3 24 -5 10 -6 20 -3 24 13 13 20 5 20 -24z m118 12 c-3 -3 -11
0 -18 7 -9 10 -8 11 6 5 10 -3 15 -9 12 -12z m69 -28 c15 -6 15 -8 -1 -21 -17
-14 -17 -14 2 -9 19 6 19 5 3 -7 -10 -8 -16 -17 -13 -20 3 -4 2 -5 -2 -2 -7 6
-14 65 -8 65 2 0 11 -3 19 -6z m-74 -20 c0 -8 -19 -13 -24 -6 -3 5 1 9 9 9 8
0 15 -2 15 -3z m1615 -24 c-3 -5 -1 -10 6 -10 7 0 10 -3 6 -6 -9 -9 -28 6 -22
17 4 5 8 9 11 9 3 0 2 -4 -1 -10z m2420 0 c-3 -5 -12 -10 -18 -10 -7 0 -6 4 3
10 19 12 23 12 15 0z m-4045 -16 c0 -8 -19 -13 -24 -6 -3 5 1 9 9 9 8 0 15 -2
15 -3z m1693 -19 c-3 -9 -8 -14 -10 -11 -3 3 -2 9 2 15 9 16 15 13 8 -4z
m-1623 1 c0 -2 -8 -10 -17 -17 -16 -13 -17 -12 -4 4 13 16 21 21 21 13z m640
-24 c0 -4 -9 -13 -21 -20 -12 -8 -18 -9 -15 -4 3 6 3 12 -1 15 -5 2 -3 2 4 1
7 -2 15 1 18 6 7 12 15 13 15 2z m-550 -24 c0 -6 -6 -5 -15 2 -8 7 -15 14 -15
16 0 2 7 1 15 -2 8 -4 15 -11 15 -16z m1555 13 c3 -5 2 -12 -3 -15 -5 -3 -9 1
-9 9 0 17 3 19 12 6z m-985 -11 c0 -5 -8 -10 -17 -10 -15 0 -16 2 -3 10 19 12
20 12 20 0z m3930 -20 l-25 -19 34 4 c32 4 32 3 16 -15 -17 -19 -16 -19 18
-16 34 4 35 3 26 -23 -11 -32 -106 -151 -119 -151 -6 0 -10 -6 -10 -13 0 -8
-11 -24 -25 -37 -26 -24 -55 -35 -55 -20 0 4 -11 8 -25 8 -30 0 -50 -29 -33
-46 7 -7 8 -12 3 -12 -6 0 -4 -4 4 -9 12 -8 5 -18 -30 -53 -89 -87 -95 -91
-119 -78 -18 10 -22 9 -27 -9 -4 -17 -9 -19 -24 -10 -11 5 -17 14 -14 20 4 5
1 9 -4 9 -6 0 -11 -9 -11 -20 0 -11 5 -20 10 -20 6 0 10 -9 10 -21 0 -11 5
-17 10 -14 6 3 10 4 10 1 0 -7 -163 -120 -177 -122 -7 -1 -15 2 -19 7 -9 15
-22 0 -17 -20 5 -18 -6 -26 -132 -98 -69 -40 -277 -140 -345 -166 -188 -72
-398 -126 -600 -153 -141 -19 -199 -22 -385 -19 -185 3 -407 24 -424 41 -3 2
1 10 9 17 10 10 11 9 5 -3 -4 -8 1 -6 12 5 11 11 18 24 16 28 -3 5 24 5 59 1
34 -4 75 -7 91 -8 16 0 27 -5 27 -13 0 -15 12 -17 26 -4 5 5 92 11 194 14 102
4 196 8 210 11 14 2 48 7 75 10 28 4 99 16 158 28 105 20 108 20 121 2 8 -10
12 -22 10 -26 -3 -4 3 -5 12 -1 13 5 15 3 9 -8 -6 -11 -5 -12 5 -2 11 10 17
10 29 0 10 -8 12 -8 8 -1 -9 16 18 25 32 11 11 -11 16 2 11 28 -1 6 4 4 11 -2
7 -7 18 -13 24 -13 5 0 3 5 -5 10 -11 7 -11 10 -2 10 7 0 10 5 7 10 -3 6 -2
10 3 10 5 0 8 11 7 25 -2 13 0 24 3 23 7 -1 17 2 72 22 19 7 45 13 57 14 12 0
19 3 17 5 -4 5 122 60 146 64 8 1 17 5 20 8 13 15 216 115 227 112 7 -2 9 -11
6 -20 -5 -12 -3 -14 7 -8 10 6 12 4 7 -9 -4 -10 -3 -15 3 -11 6 3 10 1 10 -4
0 -6 8 -11 18 -11 15 1 15 2 -3 16 -16 12 -17 16 -6 23 23 14 5 44 -21 36 -22
-6 -22 -6 2 14 14 11 29 19 34 18 5 -2 19 6 32 17 36 33 54 47 54 41 0 -2 8 2
18 9 93 77 130 101 145 98 10 -2 20 4 24 14 11 30 45 64 57 57 6 -3 8 -3 4 2
-8 9 42 52 55 47 5 -1 6 1 3 6 -3 5 10 23 29 40 32 31 52 42 40 22 -3 -6 1 -7
10 -3 12 4 13 8 5 13 -15 9 45 80 69 80 30 0 63 31 57 53 -4 15 8 37 41 76 61
73 87 99 93 94 3 -2 -6 -13 -20 -23z m-4563 5 c0 -8 -4 -12 -9 -9 -5 3 -6 10
-3 15 9 13 12 11 12 -6z m103 -85 c0 -5 -2 -10 -4 -10 -3 0 -8 5 -11 10 -3 6
-1 10 4 10 6 0 11 -4 11 -10z m40 -19 c0 -6 -4 -12 -8 -15 -5 -3 -9 1 -9 9 0
8 4 15 9 15 4 0 8 -4 8 -9z m-23 -45 c-3 -8 -1 -17 6 -20 7 -2 2 -4 -10 -2
-12 1 -26 6 -30 11 -5 4 -2 5 5 1 7 -4 15 -1 18 8 3 9 8 16 11 16 3 0 3 -6 0
-14z m74 -3 c12 -16 12 -17 -2 -6 -9 7 -20 9 -24 5 -5 -4 -5 -1 -1 6 9 16 11
15 27 -5z m73 -18 c-11 -9 -13 -14 -5 -13 16 4 23 -40 7 -49 -6 -3 -8 -2 -3 2
4 5 0 19 -8 32 -17 26 -12 43 13 43 13 0 13 -2 -4 -15z m176 11 c0 -2 -7 -7
-16 -10 -8 -3 -12 -2 -9 4 6 10 25 14 25 6z m-283 -21 c0 -8 -4 -12 -9 -9 -5
3 -6 10 -3 15 9 13 12 11 12 -6z m303 11 c0 -2 -8 -10 -17 -17 -16 -13 -17
-12 -4 4 13 16 21 21 21 13z m-309 -43 c13 -16 12 -17 -3 -4 -10 7 -18 15 -18
17 0 8 8 3 21 -13z m3979 -34 c0 -8 -45 -22 -84 -25 -19 -1 -24 1 -15 7 8 5
23 6 34 3 18 -4 17 -3 -4 15 -13 12 -19 21 -14 21 5 0 14 -5 20 -11 8 -8 13
-8 17 0 4 6 2 11 -5 11 -7 0 -10 3 -6 6 3 3 11 3 17 -1 8 -5 8 -11 -1 -21 -13
-15 -9 -17 15 -8 12 5 13 11 5 27 -10 21 -10 21 5 3 9 -11 16 -23 16 -27z
m-3910 21 c0 -5 -5 -10 -11 -10 -5 0 -7 5 -4 10 3 6 8 10 11 10 2 0 4 -4 4
-10z m155 -8 c-3 -3 -11 0 -18 7 -9 10 -8 11 6 5 10 -3 15 -9 12 -12z m585 8
c0 -5 -5 -10 -11 -10 -5 0 -7 5 -4 10 3 6 8 10 11 10 2 0 4 -4 4 -10z m3190
-7 c0 4 8 4 17 -1 21 -12 26 -42 6 -42 -9 0 -13 6 -10 15 4 8 1 17 -5 21 -7 4
-8 3 -4 -4 4 -7 2 -12 -3 -12 -6 0 -11 2 -11 4 0 2 -3 13 -6 23 -5 15 -4 15 5
3 6 -8 11 -11 11 -7z m54 2 c3 -8 1 -15 -4 -15 -6 0 -10 7 -10 15 0 8 2 15 4
15 2 0 6 -7 10 -15z m46 -17 c0 -5 5 -6 10 -3 6 4 7 11 4 17 -4 7 -2 8 5 4 6
-4 9 -12 6 -17 -4 -5 0 -9 7 -9 12 0 -55 -69 -121 -123 -31 -26 -35 -27 -57
-12 -21 14 -24 14 -24 0 0 -8 -7 -15 -15 -15 -12 0 -13 -5 -4 -26 5 -15 8 -28
7 -29 -2 0 -16 -11 -32 -23 -15 -12 -32 -19 -37 -16 -5 3 -8 0 -7 -7 2 -8 -11
-13 -33 -15 -27 -2 -36 2 -35 12 3 22 22 38 30 25 4 -6 2 -11 -5 -11 -10 0
-10 -3 -1 -12 10 -10 15 -10 22 2 6 9 6 16 0 18 -6 2 -10 15 -10 28 0 18 -4
23 -12 18 -7 -5 9 14 35 40 26 27 51 62 54 77 4 23 9 27 19 19 9 -9 16 -6 25
12 l12 23 14 -32 c7 -18 19 -33 27 -33 17 0 39 26 32 38 -3 6 4 12 15 15 12 3
18 10 14 16 -4 7 4 11 21 11 23 0 25 2 14 15 -11 13 -10 14 4 9 9 -3 16 -10
16 -16z m-3794 -20 c4 -7 4 -10 -1 -6 -4 4 -15 2 -24 -5 -14 -11 -14 -10 -2 6
16 20 18 21 27 5z m519 -17 c-3 -2 -17 -6 -32 -7 -20 -2 -23 0 -14 6 15 8 54
10 46 1z m-485 -17 c0 -8 -19 -13 -24 -6 -3 5 1 9 9 9 8 0 15 -2 15 -3z m30
-68 c0 -3 -4 -8 -10 -11 -5 -3 -10 -1 -10 4 0 6 5 11 10 11 6 0 10 -2 10 -4z
m275 -35 c-3 -5 2 -17 11 -25 8 -9 11 -16 5 -16 -6 0 -15 9 -21 19 -13 25 -13
31 1 31 5 0 8 -4 4 -9z m3123 -86 c-1 -14 -7 -25 -13 -25 -5 0 -2 -5 8 -11 9
-5 21 -8 26 -4 5 3 12 1 16 -5 3 -5 0 -10 -7 -10 -8 0 -21 -8 -29 -17 -19 -21
-111 -78 -121 -75 -5 1 -8 -2 -8 -7 0 -4 -28 -23 -62 -40 -35 -18 -83 -44
-107 -58 -26 -15 -42 -20 -39 -12 6 18 -13 38 -32 32 -13 -4 -13 -4 0 7 11 9
12 13 3 17 -10 3 -9 8 2 20 12 11 13 19 5 28 -13 15 12 14 68 -3 17 -6 32 -8
32 -5 0 3 7 0 15 -7 10 -9 15 -9 15 -1 0 6 -4 11 -9 11 -14 0 -21 29 -9 36 6
4 9 3 5 -2 -3 -5 6 -14 19 -21 17 -8 26 -8 31 -1 3 6 1 8 -4 5 -6 -4 -16 0
-23 8 -10 12 -8 14 7 10 12 -2 20 2 20 10 0 8 -4 12 -8 9 -4 -2 -10 0 -13 5
-4 5 5 8 19 7 20 -3 23 0 15 15 -8 15 -6 17 17 14 l26 -3 -24 19 c-27 21 -19
25 13 8 17 -9 20 -9 15 3 -3 8 1 15 9 15 7 0 11 -4 9 -8 -3 -4 6 -6 20 -5 16
0 23 6 20 14 -3 7 0 10 6 7 5 -4 7 -16 4 -28 -2 -12 -2 -16 1 -9 3 6 15 12 25
12 11 0 17 -4 14 -10 -4 -6 1 -7 10 -3 14 5 11 10 -14 25 -17 11 -31 23 -31
26 0 3 3 3 6 0 3 -4 14 2 25 13 25 25 29 24 27 -6z m-3134 3 c-3 -4 -1 -8 5
-8 11 0 9 -25 -3 -37 -4 -4 -7 -3 -6 2 8 37 -21 46 -48 15 -12 -13 -13 -13 -6
0 4 8 11 20 15 25 9 12 50 15 43 3z m2013 -75 c-4 -3 -1 -13 6 -22 11 -14 10
-14 -5 -2 -16 12 -16 31 -1 31 4 0 3 -3 0 -7z m-550 -25 c-3 -8 -6 -5 -6 6 -1
11 2 17 5 13 3 -3 4 -12 1 -19z m593 8 c0 -3 -4 -8 -10 -11 -5 -3 -10 -1 -10
4 0 6 5 11 10 11 6 0 10 -2 10 -4z m-1985 -25 c-9 -8 -36 -10 -30 -2 2 4 11 8
20 8 8 0 13 -3 10 -6z m1442 -10 c9 -11 21 -17 26 -14 6 3 7 1 3 -5 -3 -5 -1
-12 6 -14 7 -3 5 -7 -6 -11 -9 -4 -15 -3 -11 2 6 10 -11 24 -33 27 -20 3 -28
14 -11 14 11 0 11 2 -1 10 -10 7 -11 10 -2 10 7 0 20 -9 29 -19z m473 -5 c0
-2 -8 -10 -17 -17 -16 -13 -17 -12 -4 4 13 16 21 21 21 13z m229 -11 c3 -3 -7
-4 -23 -1 -16 3 -31 8 -35 11 -3 3 7 4 23 1 16 -3 31 -8 35 -11z m641 -5 c0
-5 -5 -10 -11 -10 -5 0 -7 5 -4 10 3 6 8 10 11 10 2 0 4 -4 4 -10z m-204 -75
c-2 -7 4 -21 15 -31 10 -9 19 -14 19 -11 0 3 12 -1 27 -8 20 -11 29 -11 34 -3
4 7 5 16 3 20 -3 4 0 8 6 8 7 0 10 -7 6 -17 -5 -15 -3 -14 10 2 15 20 15 20
12 0 -3 -22 -75 -59 -213 -110 -118 -43 -135 -47 -135 -29 0 8 -9 14 -20 14
-11 0 -20 4 -20 9 0 5 -9 11 -21 14 -18 5 -18 3 -7 -11 12 -15 11 -16 -5 -3
-11 9 -15 21 -11 33 5 17 4 18 -15 6 -13 -8 -16 -15 -9 -19 6 -4 2 -10 -11
-14 -18 -5 -20 -9 -10 -21 10 -12 7 -12 -17 1 -22 11 -30 12 -36 2 -5 -8 -8
-5 -9 8 0 17 -1 18 -7 3 -6 -15 -8 -14 -18 6 -9 20 -9 23 5 21 9 -2 16 -4 16
-5 0 -1 8 -3 18 -5 14 -3 16 1 11 18 -6 22 -6 22 11 0 9 -13 21 -23 27 -23 6
0 6 6 -2 15 -10 13 -11 18 -1 28 10 9 11 8 5 -6 -5 -13 -2 -16 10 -11 8 3 14
11 13 17 -1 7 6 11 15 9 13 -2 16 2 12 15 -5 14 -4 15 4 4 5 -7 9 -21 7 -30
-1 -9 3 -19 9 -23 16 -11 28 -10 21 2 -3 6 0 10 7 11 7 0 4 4 -7 9 -27 12 -3
12 28 1 28 -11 53 1 42 19 -5 8 -4 11 2 7 13 -8 36 17 25 28 -4 5 -1 5 6 1 11
-6 10 -12 -2 -32 -14 -20 -14 -23 -1 -18 8 4 15 10 15 16 0 5 5 6 10 3 8 -5 8
-11 0 -20 -7 -8 -7 -16 -2 -19 6 -3 15 1 22 9 7 8 9 15 4 15 -4 0 -3 5 3 11 6
6 9 19 5 28 -5 14 -4 14 13 1 11 -9 16 -10 11 -2 -4 6 -3 12 2 12 17 0 22 -13
9 -29 -11 -14 -10 -14 6 -2 9 8 15 16 13 18 -6 7 17 32 25 27 3 -2 5 10 4 26
-1 16 2 27 7 24 5 -4 7 -12 4 -19z m-43 -12 c-7 -2 -13 -9 -13 -14 0 -6 6 -7
13 -3 6 4 9 3 5 -1 -11 -12 -78 -15 -78 -4 0 5 7 10 15 10 28 3 33 4 41 12 4
4 12 7 18 6 6 0 5 -3 -1 -6z m71 -9 c3 -8 2 -12 -4 -9 -6 3 -10 10 -10 16 0
14 7 11 14 -7z m56 -10 c0 -8 -19 -13 -24 -6 -3 5 1 9 9 9 8 0 15 -2 15 -3z
m-666 -23 c3 -5 -2 -15 -12 -22 -15 -12 -16 -12 -5 2 7 9 10 19 6 22 -3 4 -4
7 0 7 3 0 8 -4 11 -9z m226 -21 c0 -5 -2 -10 -4 -10 -3 0 -8 5 -11 10 -3 6 -1
10 4 10 6 0 11 -4 11 -10z m-590 -75 c-10 -12 -10 -15 1 -15 10 0 10 -3 1 -12
-7 -7 -12 -17 -12 -22 0 -6 5 -4 10 4 8 12 10 12 10 1 0 -9 7 -11 21 -8 16 4
18 3 9 -8 -8 -9 -6 -14 5 -19 9 -3 13 -11 9 -17 -5 -8 -1 -8 14 0 29 15 34 27
12 27 -10 0 -16 -5 -13 -10 3 -5 1 -6 -6 -2 -16 10 -5 24 16 21 37 -5 63 -18
57 -29 -3 -6 1 -3 9 7 19 24 34 3 15 -21 -11 -15 -11 -15 3 -5 19 15 30 7 21
-15 -5 -15 -4 -15 11 -2 30 28 42 35 61 38 10 2 15 -1 12 -6 -3 -5 4 -18 17
-28 l22 -19 -18 22 c-12 14 -15 23 -8 28 6 3 11 1 11 -5 0 -6 5 -8 10 -5 17
11 11 24 -10 20 -11 -2 -20 1 -20 6 0 6 -6 7 -12 2 -21 -13 -37 -12 -32 2 3 7
17 12 30 10 18 -2 24 2 20 12 -3 8 -1 11 4 8 6 -3 10 -13 10 -21 0 -8 5 -12
10 -9 6 4 8 10 5 15 -3 5 0 12 7 16 7 4 10 4 6 -1 -4 -4 0 -14 8 -23 11 -11
18 -12 27 -3 8 8 8 11 -2 11 -7 0 -9 5 -6 10 15 25 27 2 15 -30 -1 -3 -2 -8
-1 -12 0 -5 -2 -7 -7 -7 -18 3 -26 -2 -14 -10 11 -7 10 -9 -3 -14 -9 -4 -13
-3 -10 2 3 5 1 12 -5 16 -6 4 -10 -5 -10 -20 0 -23 -3 -25 -37 -22 -21 2 -46
0 -55 -5 -10 -5 -87 -11 -171 -14 -150 -6 -154 -6 -160 14 -6 24 10 41 35 37
21 -4 33 25 16 37 -9 5 -8 8 6 8 16 0 17 2 5 17 -10 12 -10 14 -1 9 7 -4 15 0
19 11 4 10 14 23 22 30 22 17 26 16 11 -2z m385 -13 c-3 -3 -11 0 -18 7 -9 10
-8 11 6 5 10 -3 15 -9 12 -12z m-695 -23 c0 -5 5 -7 10 -4 6 4 9 1 8 -7 -2 -7
3 -12 10 -10 8 1 11 -2 8 -7 -7 -11 19 -33 28 -23 4 4 7 3 6 -3 -1 -5 -1 -13
0 -17 1 -5 3 -14 4 -20 1 -7 7 -12 14 -10 7 1 12 -3 12 -9 0 -6 -21 -9 -52 -7
-39 2 -53 7 -53 18 0 8 -11 24 -24 36 -18 16 -20 21 -8 21 9 0 15 -5 14 -10
-1 -5 4 -12 11 -14 13 -5 17 28 5 41 -11 10 -12 36 -2 36 5 0 9 -5 9 -11z
m890 -20 c-13 -8 -13 -10 0 -19 8 -5 13 -10 10 -10 -3 0 -25 -6 -50 -14 -42
-13 -46 -12 -46 3 0 13 8 17 35 15 32 -1 33 0 15 14 -11 9 -13 13 -4 10 8 -3
21 2 29 9 7 8 16 11 19 8 4 -3 0 -10 -8 -16z m-371 -43 c-13 -14 -31 7 -23 28
6 15 7 15 20 -1 8 -11 9 -22 3 -27z m-421 -11 c-3 -3 -9 2 -12 12 -6 14 -5 15
5 6 7 -7 10 -15 7 -18z m684 4 c-13 -12 -71 -18 -77 -9 -3 5 0 7 8 4 8 -3 17
-2 20 3 3 4 17 8 31 8 14 0 22 -3 18 -6z m158 -11 c0 -5 6 -6 13 -2 6 4 9 4 5
-1 -4 -4 -3 -14 3 -21 8 -10 6 -12 -11 -9 -26 5 -33 11 -36 29 -1 7 5 13 12
13 8 0 14 -4 14 -9z m-986 -9 c-2 -4 4 -10 13 -12 15 -4 15 -5 2 -6 -9 0 -22
5 -28 12 -8 10 -7 14 4 14 8 0 12 -4 9 -8z m-127 -45 c7 -7 13 -17 13 -22 0
-6 6 -13 13 -16 6 -3 3 -4 -8 -1 -11 2 -37 7 -57 11 -21 3 -43 13 -50 22 -9
11 -9 14 -1 9 7 -5 16 1 23 13 9 17 14 19 33 9 12 -7 27 -18 34 -25z m-197
-68 c0 -2 -8 -10 -17 -17 -16 -13 -17 -12 -4 4 13 16 21 21 21 13z"/>
<path d="M2970 5649 c0 -5 -4 -7 -10 -4 -5 3 -10 2 -10 -3 0 -11 30 -25 38
-17 3 3 0 5 -6 5 -6 0 -9 7 -6 15 4 8 3 15 0 15 -3 0 -6 -5 -6 -11z"/>
<path d="M3020 5650 c-11 -7 -11 -10 -2 -10 7 0 10 -5 7 -10 -4 -6 -12 -8 -18
-4 -7 3 -3 -2 7 -10 24 -19 32 -20 42 -4 4 6 0 16 -9 23 -9 7 -14 15 -10 18 9
10 0 8 -17 -3z m30 -30 c0 -5 -4 -10 -10 -10 -5 0 -10 5 -10 10 0 6 5 10 10
10 6 0 10 -4 10 -10z"/>
<path d="M2873 5638 c-5 -9 -1 -10 27 -10 33 0 40 2 40 10 0 10 -60 10 -67 0z"/>
<path d="M3098 5644 c-4 -5 6 -17 22 -26 23 -13 28 -13 23 -2 -3 8 -11 14 -18
14 -7 0 -15 5 -17 12 -3 7 -7 8 -10 2z"/>
<path d="M2931 5610 c-9 -5 -4 -7 13 -7 29 0 32 2 13 10 -8 3 -20 2 -26 -3z"/>
<path d="M3935 5620 c-3 -5 -1 -10 4 -10 6 0 11 5 11 10 0 6 -2 10 -4 10 -3 0
-8 -4 -11 -10z"/>
<path d="M3890 5602 c0 -5 7 -13 16 -16 22 -8 24 -8 24 6 0 6 -3 8 -7 5 -3 -4
-12 -2 -20 4 -8 7 -13 8 -13 1z"/>
<path d="M3910 5546 c0 -2 7 -6 15 -10 8 -3 15 -1 15 4 0 6 -7 10 -15 10 -8 0
-15 -2 -15 -4z"/>
<path d="M3955 5520 c2 -27 10 -33 12 -10 1 11 -2 22 -6 24 -4 3 -7 -4 -6 -14z"/>
<path d="M3025 5510 c2 -13 7 -25 10 -28 3 -3 -3 -15 -12 -26 l-18 -21 24 20
24 20 -6 -20 c-7 -20 -7 -20 8 0 20 25 16 44 -12 62 -21 14 -22 14 -18 -7z
m29 -16 c10 -25 -1 -29 -14 -5 -6 12 -7 21 -1 21 5 0 12 -7 15 -16z"/>
<path d="M3740 5521 c0 -6 4 -13 10 -16 6 -3 7 1 4 9 -7 18 -14 21 -14 7z"/>
<path d="M3846 5482 c-3 -5 1 -9 9 -9 8 0 12 4 9 9 -3 4 -7 8 -9 8 -2 0 -6 -4
-9 -8z"/>
<path d="M4330 5499 c0 -5 5 -7 10 -4 6 3 10 8 10 11 0 2 -4 4 -10 4 -5 0 -10
-5 -10 -11z"/>
<path d="M2060 5459 c-16 -30 -8 -31 13 -3 10 13 13 24 8 24 -6 0 -15 -9 -21
-21z"/>
<path d="M1360 5120 c-9 -5 -9 -9 -1 -14 6 -4 11 -4 11 0 0 3 7 1 15 -6 22
-18 25 -8 5 11 -10 9 -23 13 -30 9z"/>
<path d="M575 4131 c-3 -5 -2 -12 3 -15 5 -3 9 1 9 9 0 17 -3 19 -12 6z"/>
<path d="M3386 5461 c-4 -5 -2 -12 3 -15 5 -4 12 -2 15 3 4 5 2 12 -3 15 -5 4
-12 2 -15 -3z"/>
<path d="M3320 5445 c-9 -10 -9 -15 -1 -15 6 0 11 5 11 11 0 8 6 7 18 -2 15
-13 16 -12 3 4 -16 21 -16 21 -31 2z"/>
<path d="M3697 5448 c-18 -14 -12 -26 32 -63 l24 -20 -14 23 c-8 12 -17 22
-22 22 -4 0 -5 11 -3 25 5 29 5 29 -17 13z"/>
<path d="M2585 5420 c3 -5 -2 -22 -12 -37 -14 -22 -15 -26 -2 -16 9 7 19 10
23 6 4 -4 4 1 0 11 -5 12 -4 17 3 13 5 -3 10 0 10 8 0 8 -7 17 -14 19 -8 3
-11 1 -8 -4z"/>
<path d="M2517 5400 c3 -11 9 -20 15 -20 5 0 4 9 -2 20 -6 11 -12 20 -14 20
-2 0 -2 -9 1 -20z"/>
<path d="M3775 5440 c-3 -6 -10 -8 -14 -6 -4 3 -8 -1 -8 -8 0 -8 7 -13 16 -11
9 1 19 -2 22 -7 3 -5 9 -3 12 5 7 19 -18 43 -28 27z m19 -8 c3 -5 -1 -9 -9 -9
-8 0 -12 4 -9 9 3 4 7 8 9 8 2 0 6 -4 9 -8z"/>
<path d="M2310 5395 c-10 -13 -9 -15 8 -15 15 0 20 5 16 15 -4 8 -7 15 -9 15
-1 0 -8 -7 -15 -15z"/>
<path d="M2170 5406 c0 -2 7 -7 16 -10 8 -3 12 -2 9 4 -6 10 -25 14 -25 6z"/>
<path d="M2336 5315 c-3 -8 -1 -15 4 -15 13 0 22 18 11 24 -5 3 -11 -1 -15 -9z"/>
<path d="M2466 5133 c-11 -11 -7 -20 9 -20 8 0 15 4 15 8 0 11 -16 20 -24 12z"/>
<path d="M1480 5041 c0 -6 4 -13 10 -16 6 -3 7 1 4 9 -7 18 -14 21 -14 7z"/>
<path d="M1436 4992 c-3 -6 1 -13 10 -16 23 -9 28 -2 10 13 -8 7 -17 8 -20 3z"/>
<path d="M1006 4422 c-4 -7 -2 -12 5 -12 7 0 9 -3 6 -7 -4 -3 -2 -12 4 -20 9
-10 8 -13 0 -13 -7 0 -10 -4 -6 -10 3 -5 13 -6 22 -3 15 6 16 5 3 -9 -16 -16
-27 -17 -47 -5 -6 4 -14 3 -17 -2 -7 -11 3 -18 24 -16 8 0 18 -4 22 -10 5 -6
8 -5 8 3 0 7 5 10 12 6 6 -4 8 -3 4 4 -3 6 -2 13 4 17 14 9 12 21 -7 40 -14
14 -14 18 -2 27 11 8 11 9 -3 5 -9 -3 -18 -1 -21 6 -2 8 -5 8 -11 -1z"/>
<path d="M1090 4398 c0 -11 28 -10 35 1 3 6 -4 9 -15 8 -11 -1 -20 -5 -20 -9z"/>
<path d="M1089 4154 c-7 -9 -6 -12 8 -9 10 2 21 4 26 4 4 1 7 5 7 9 0 13 -29
10 -41 -4z"/>
<path d="M1545 4810 c-3 -4 -2 -16 2 -26 4 -12 3 -15 -5 -10 -7 4 -12 14 -12
22 0 8 -4 14 -8 14 -23 0 -4 -31 35 -56 29 -18 42 -32 39 -43 -6 -19 39 -56
49 -41 4 6 2 17 -4 24 -7 9 -7 16 1 24 9 9 9 12 0 12 -7 0 -12 -4 -12 -9 0 -5
-8 -12 -17 -15 -16 -6 -16 -6 0 12 9 10 14 22 10 26 -4 4 0 4 10 0 10 -3 22
-15 28 -26 12 -22 21 -17 26 13 2 15 -1 19 -14 15 -23 -7 -39 4 -38 27 0 9 -4
17 -9 16 -5 0 -12 5 -16 12 -9 14 -57 21 -65 9z m38 -17 c-9 -7 -13 -14 -7
-14 5 -1 14 -2 19 -4 6 -1 17 -3 25 -4 12 -1 12 -4 -2 -15 -10 -7 -14 -16 -10
-20 4 -4 -7 0 -25 10 -18 11 -27 21 -21 25 7 4 7 9 -1 13 -19 12 -12 24 14 22
23 -1 24 -2 8 -13z m55 -118 c-3 -3 -9 2 -12 12 -6 14 -5 15 5 6 7 -7 10 -15
7 -18z"/>
<path d="M1590 4759 c0 -5 5 -7 10 -4 6 3 10 8 10 11 0 2 -4 4 -10 4 -5 0 -10
-5 -10 -11z"/>
<path d="M1701 4686 c-9 -11 -6 -13 14 -13 20 0 23 2 14 13 -6 8 -13 14 -14
14 -1 0 -8 -6 -14 -14z"/>
<path d="M1750 4680 c0 -5 5 -10 10 -10 6 0 10 5 10 10 0 6 -4 10 -10 10 -5 0
-10 -4 -10 -10z"/>
<path d="M565 3769 c-11 -17 1 -21 15 -4 8 9 8 15 2 15 -6 0 -14 -5 -17 -11z"/>
<path d="M670 3795 c-7 -9 -11 -18 -8 -20 3 -3 11 1 18 10 7 9 11 18 8 20 -3
3 -11 -1 -18 -10z"/>
<path d="M429 3765 c-1 -8 -2 -21 -3 -27 -1 -7 7 -12 18 -10 13 3 17 -1 13
-11 -3 -8 -1 -19 5 -25 13 -13 0 -35 -15 -25 -9 5 -9 3 -1 -8 6 -8 10 -28 9
-46 0 -17 3 -29 7 -27 4 3 6 15 4 27 -2 12 1 28 6 35 6 6 7 12 2 12 -5 0 -2 5
6 11 12 9 13 12 1 16 -11 5 -11 7 0 14 10 6 11 9 2 9 -7 0 -13 5 -13 11 0 5 5
7 10 4 6 -4 5 4 -1 19 -11 24 -13 24 -25 8 -7 -9 -16 -14 -20 -9 -4 4 -2 7 4
7 7 0 12 7 12 15 0 8 -4 15 -10 15 -5 0 -11 -7 -11 -15z"/>
<path d="M555 3681 c-3 -6 -1 -11 6 -11 6 0 1 -8 -12 -18 -12 -11 -24 -27 -26
-38 -5 -26 -11 -49 -13 -49 -7 0 -6 -35 1 -46 6 -10 9 -11 9 -1 0 6 5 12 11
12 5 0 7 -5 3 -12 -4 -7 -3 -8 4 -4 16 10 34 -28 20 -42 -8 -8 -8 -12 -1 -12
6 0 16 7 23 15 9 10 9 15 1 15 -6 0 -11 5 -11 11 0 5 4 8 9 4 6 -3 15 3 20 14
9 15 6 22 -14 35 -24 16 -25 53 -1 39 6 -3 7 -2 3 2 -18 20 -35 12 -33 -15 0
-16 5 -26 10 -23 5 4 6 1 2 -6 -4 -7 -2 -10 4 -9 7 2 14 -5 15 -15 3 -14 0
-15 -9 -8 -7 6 -17 7 -21 3 -5 -4 -5 -2 -1 5 3 6 -3 18 -14 26 -19 13 -19 15
-4 21 13 5 14 9 4 21 -9 10 -9 15 -1 15 6 0 10 3 10 8 -3 17 2 32 10 32 6 0 8
-9 6 -20 -3 -18 -1 -19 17 -9 16 9 23 8 29 -2 5 -8 9 -9 9 -3 0 18 -57 76 -65
65z m33 -46 c-3 -3 -9 2 -12 12 -6 14 -5 15 5 6 7 -7 10 -15 7 -18z m-63 -84
c3 -5 2 -12 -3 -15 -5 -3 -9 1 -9 9 0 17 3 19 12 6z"/>
<path d="M399 3643 c0 -4 -2 -18 -5 -30 -3 -17 1 -21 16 -20 11 1 20 5 20 10
0 5 -8 6 -17 3 -16 -5 -16 -5 -2 7 14 10 14 14 3 25 -8 7 -14 9 -15 5z"/>
<path d="M396 3561 c-15 -16 -15 -19 -1 -31 9 -7 15 -9 14 -4 -1 5 0 11 1 14
4 10 8 40 6 40 -2 0 -10 -8 -20 -19z"/>
<path d="M563 2798 c-28 -36 -15 -49 19 -20 8 6 17 9 20 6 3 -3 9 -1 12 4 3 6
-2 9 -11 8 -10 -2 -21 1 -24 6 -3 5 -10 3 -16 -4z"/>
<path d="M5621 2947 c-8 -10 -7 -14 2 -14 8 0 14 6 14 14 0 7 -1 13 -2 13 -2
0 -8 -6 -14 -13z"/>
<path d="M5585 2920 c3 -5 8 -10 11 -10 2 0 4 5 4 10 0 6 -5 10 -11 10 -5 0
-7 -4 -4 -10z"/>
<path d="M5432 2921 c-11 -6 -10 -10 0 -19 11 -8 14 -7 14 9 0 10 0 19 -1 19
0 0 -6 -4 -13 -9z"/>
<path d="M5083 2144 c4 -4 -1 -13 -11 -21 -15 -12 -14 -13 8 -2 33 16 33 16
13 23 -9 4 -14 4 -10 0z"/>
<path d="M5130 1880 c0 -5 7 -10 15 -10 8 0 15 5 15 10 0 6 -7 10 -15 10 -8 0
-15 -4 -15 -10z"/>
<path d="M5105 1850 c-8 -13 4 -50 16 -50 6 0 19 5 30 11 20 10 19 11 -5 30
-28 22 -32 23 -41 9z"/>
<path d="M4985 1650 c-8 -13 -1 -24 14 -19 6 3 7 10 2 18 -6 10 -10 10 -16 1z"/>
<path d="M5045 1621 c-3 -5 -1 -12 5 -16 5 -3 10 1 10 9 0 18 -6 21 -15 7z"/>
<path d="M4750 1602 c0 -5 -13 -8 -30 -7 -16 1 -30 -1 -30 -5 0 -5 -9 -6 -19
-3 -11 3 -28 -4 -40 -16 -21 -21 -29 -47 -11 -36 5 3 7 0 4 -9 -8 -22 29 -29
68 -12 18 8 28 15 21 15 -7 1 -10 8 -6 18 4 11 3 14 -5 9 -7 -4 -12 -1 -12 8
0 23 43 24 64 1 15 -16 18 -16 13 -3 -3 9 -1 18 5 20 6 2 3 9 -6 17 -9 7 -16
9 -16 3z"/>
<path d="M4861 1536 c-6 -7 -8 -16 -4 -19 10 -11 41 -8 49 5 5 8 2 9 -10 5 -9
-4 -14 -3 -11 2 9 16 -12 22 -24 7z"/>
<path d="M4900 1414 c0 -9 7 -14 17 -12 25 5 28 28 4 28 -12 0 -21 -6 -21 -16z"/>
<path d="M4766 1413 c-11 -11 -6 -23 9 -23 8 0 15 4 15 9 0 13 -16 22 -24 14z"/>
<path d="M4770 1360 c0 -5 5 -10 11 -10 5 0 7 5 4 10 -3 6 -8 10 -11 10 -2 0
-4 -4 -4 -10z"/>
<path d="M610 1706 c0 -2 7 -7 16 -10 8 -3 12 -2 9 4 -6 10 -25 14 -25 6z"/>
<path d="M3880 534 c0 -8 5 -12 10 -9 6 4 8 11 5 16 -9 14 -15 11 -15 -7z"/>
<path d="M4700 1160 c0 -5 5 -10 11 -10 5 0 7 5 4 10 -3 6 -8 10 -11 10 -2 0
-4 -4 -4 -10z"/>
<path d="M4518 1106 c-16 -22 -16 -24 -1 -22 9 2 18 12 20 24 4 27 2 27 -19
-2z"/>
<path d="M4385 969 c-4 -6 -5 -12 -2 -15 2 -3 7 2 10 11 7 17 1 20 -8 4z"/>
<path d="M4315 920 c-3 -5 -1 -10 4 -10 6 0 11 5 11 10 0 6 -2 10 -4 10 -3 0
-8 -4 -11 -10z"/>
<path d="M4324 878 c-12 -14 -13 -18 -3 -10 9 6 18 10 21 7 2 -3 5 2 5 10 0
19 0 19 -23 -7z"/>
<path d="M4255 879 c-4 -6 -4 -13 -1 -16 3 -4 6 -1 6 6 0 7 5 9 10 6 6 -4 8
-10 6 -14 -3 -4 1 -8 9 -8 13 0 12 4 -2 19 -19 21 -20 21 -28 7z"/>
<path d="M4233 845 c0 -8 4 -15 9 -15 4 0 8 4 8 9 0 6 -4 12 -8 15 -5 3 -9 -1
-9 -9z"/>
<path d="M4067 800 c3 -12 8 -18 11 -15 3 2 12 -1 20 -8 11 -9 11 -4 -2 16
-21 32 -36 36 -29 7z"/>
<path d="M4136 774 c-9 -24 -2 -26 12 -4 7 11 8 20 3 20 -5 0 -12 -7 -15 -16z"/>
<path d="M4066 758 c3 -5 10 -6 15 -3 13 9 11 12 -6 12 -8 0 -12 -4 -9 -9z"/>
<path d="M3296 527 c3 -10 9 -15 12 -12 3 3 0 11 -7 18 -10 9 -11 8 -5 -6z"/>
<path d="M3590 476 c0 -2 7 -7 16 -10 8 -3 12 -2 9 4 -6 10 -25 14 -25 6z"/>
<path d="M4006 5555 c-13 -10 -14 -14 -3 -24 8 -6 17 -8 20 -4 10 10 8 -10 -3
-27 -10 -16 6 -43 21 -34 5 3 9 -1 9 -8 0 -9 3 -9 10 2 6 10 10 11 10 3 0 -7
3 -12 8 -12 20 3 32 -2 26 -13 -4 -7 -3 -8 4 -4 17 10 -4 47 -22 40 -17 -6
-31 13 -31 41 0 11 -5 19 -12 18 -6 -1 -14 4 -17 12 -3 9 0 12 10 8 7 -3 14
-1 14 4 0 13 -24 12 -44 -2z m40 -41 c-4 -9 -2 -22 4 -29 8 -10 7 -13 -5 -11
-8 1 -15 6 -15 12 1 16 11 44 17 44 3 0 2 -7 -1 -16z"/>
<path d="M4420 5551 c0 -7 -5 -9 -12 -5 -7 5 -8 3 -3 -5 5 -9 10 -10 18 -2 6
6 8 14 4 18 -4 3 -7 1 -7 -6z"/>
<path d="M4430 5525 c-7 -9 -8 -15 -2 -15 5 0 12 7 16 15 3 8 4 15 2 15 -2 0
-9 -7 -16 -15z"/>
<path d="M4455 5519 c-3 -4 2 -6 10 -5 21 3 28 13 10 13 -9 0 -18 -4 -20 -8z"/>
<path d="M1357 5503 c-13 -12 -7 -23 11 -23 10 0 19 7 19 15 0 15 -18 20 -30
8z"/>
<path d="M4445 5491 c3 -2 -3 -10 -13 -18 -12 -10 -8 -9 16 2 37 18 39 21 12
21 -10 0 -17 -2 -15 -5z"/>
<path d="M1270 5475 c0 -8 5 -15 10 -15 6 0 10 7 10 15 0 8 -4 15 -10 15 -5 0
-10 -7 -10 -15z"/>
<path d="M1205 5460 c3 -5 10 -10 16 -10 5 0 9 5 9 10 0 6 -7 10 -16 10 -8 0
-12 -4 -9 -10z"/>
<path d="M1110 5440 c0 -5 5 -10 10 -10 6 0 10 5 10 10 0 6 -4 10 -10 10 -5 0
-10 -4 -10 -10z"/>
<path d="M1160 5405 c0 -9 5 -15 11 -13 6 2 11 8 11 13 0 5 -5 11 -11 13 -6 2
-11 -4 -11 -13z"/>
<path d="M1236 5391 c-4 -5 -2 -12 3 -15 5 -4 12 -2 15 3 4 5 2 12 -3 15 -5 4
-12 2 -15 -3z"/>
<path d="M632 5384 c3 -5 -1 -16 -10 -24 -14 -13 -15 -12 -9 3 3 9 2 17 -3 17
-6 0 -10 -3 -11 -7 0 -5 -2 -18 -5 -30 -4 -22 8 -36 36 -40 18 -2 42 16 34 28
-3 5 0 9 6 9 6 0 10 8 8 18 -2 9 -8 17 -13 17 -6 0 -16 4 -24 9 -8 5 -12 5 -9
0z"/>
<path d="M1555 5379 c-11 -17 1 -21 15 -4 8 9 8 15 2 15 -6 0 -14 -5 -17 -11z"/>
<path d="M1415 5359 c-10 -15 3 -25 16 -12 7 7 7 13 1 17 -6 3 -14 1 -17 -5z"/>
<path d="M966 5345 c-3 -9 0 -15 9 -15 16 0 20 16 6 24 -5 3 -11 -1 -15 -9z"/>
<path d="M1369 5348 c-8 -28 -5 -39 9 -36 22 4 29 38 8 38 -9 0 -16 -1 -17 -2z"/>
<path d="M897 5324 c-8 -8 3 -34 14 -34 11 0 12 27 0 34 -4 3 -11 3 -14 0z"/>
<path d="M970 5296 c0 -21 21 -31 30 -15 5 7 6 17 4 21 -9 14 -34 9 -34 -6z"/>
<path d="M894 5241 c-8 -8 -4 -22 4 -17 5 3 21 7 36 10 42 8 42 14 1 12 -20 0
-38 -3 -41 -5z"/>
<path d="M1156 5080 c-9 -18 -14 -36 -10 -39 8 -8 57 22 62 39 3 8 1 12 -3 8
-4 -4 -13 0 -20 9 -11 14 -14 12 -29 -17z"/>
<path d="M863 5082 c-13 -2 -23 -6 -23 -8 0 -14 22 -44 32 -44 11 0 37 29 38
41 0 10 -22 15 -47 11z"/>
<path d="M577 5067 c-6 -16 2 -37 14 -37 6 0 7 6 3 13 -6 9 -5 9 8 0 8 -7 18
-10 21 -6 4 3 7 -1 7 -10 0 -21 33 -22 50 -2 18 22 2 37 -35 33 -21 -2 -31 0
-29 7 3 6 -4 11 -15 12 -11 1 -21 -4 -24 -10z"/>
<path d="M930 5006 c0 -35 18 -42 41 -15 26 30 24 39 -11 39 -25 0 -30 -4 -30
-24z"/>
<path d="M793 5009 c-19 -19 4 -58 35 -59 19 0 11 64 -8 68 -9 1 -21 -3 -27
-9z"/>
<path d="M374 4914 c3 -9 6 -18 6 -21 0 -3 7 0 15 7 21 18 19 30 -6 30 -15 0
-19 -4 -15 -16z"/>
<path d="M182 4911 c2 -7 7 -12 11 -12 12 1 9 15 -3 20 -7 2 -11 -2 -8 -8z"/>
<path d="M440 4895 c0 -9 5 -15 11 -13 6 2 11 8 11 13 0 5 -5 11 -11 13 -6 2
-11 -4 -11 -13z"/>
<path d="M776 4874 c-6 -15 2 -24 21 -24 7 0 13 8 13 18 0 21 -27 26 -34 6z"/>
<path d="M720 4806 c0 -10 9 -16 21 -16 24 0 21 23 -4 28 -10 2 -17 -3 -17
-12z"/>
<path d="M648 4788 c-30 -11 -36 -34 -15 -62 20 -27 63 -18 60 12 -2 16 1 21
10 16 9 -6 9 -5 0 8 -7 8 -9 18 -5 23 4 4 -4 2 -18 -5 -23 -12 -24 -12 -11 3
7 10 12 17 10 16 -2 0 -16 -5 -31 -11z"/>
<path d="M5595 4780 c-3 -5 -1 -10 4 -10 6 0 11 5 11 10 0 6 -2 10 -4 10 -3 0
-8 -4 -11 -10z"/>
<path d="M587 4518 c-8 -22 13 -48 37 -48 26 0 41 31 23 49 -15 15 -54 14 -60
-1z"/>
<path d="M370 4499 c-13 -23 -13 -22 17 -38 22 -11 31 -6 27 17 -1 6 -2 19 -3
27 -2 22 -29 18 -41 -6z"/>
<path d="M480 4480 c0 -22 1 -23 24 -14 18 7 10 34 -10 34 -8 0 -14 -9 -14
-20z"/>
<path d="M413 4203 c-15 -5 -5 -33 12 -33 7 0 15 6 18 14 6 15 -10 26 -30 19z"/>
<path d="M5789 4013 c-12 -15 -12 -16 1 -8 13 8 13 6 2 -8 -8 -9 -11 -21 -8
-26 10 -15 36 -1 29 15 -3 8 -2 14 3 13 21 -4 26 2 14 16 -16 19 -24 19 -41
-2z"/>
<path d="M366 3899 c2 -4 -2 -10 -8 -13 -19 -7 20 -36 39 -29 12 5 12 7 2 14
-7 4 -17 5 -21 3 -4 -3 -8 0 -8 6 0 7 8 9 21 5 15 -5 20 -3 17 6 -2 7 -14 13
-26 14 -11 1 -19 -2 -16 -6z"/>
<path d="M157 3444 c-14 -14 -7 -35 11 -32 9 2 17 10 17 17 0 16 -18 25 -28
15z"/>
<path d="M5700 3000 c0 -5 7 -10 15 -10 8 0 15 5 15 10 0 6 -7 10 -15 10 -8 0
-15 -4 -15 -10z"/>
<path d="M82 2959 c2 -6 8 -10 13 -10 5 0 11 4 13 10 2 6 -4 11 -13 11 -9 0
-15 -5 -13 -11z"/>
<path d="M206 2853 c-11 -11 -6 -23 8 -23 8 0 17 4 20 9 7 10 -19 23 -28 14z"/>
<path d="M5837 2849 c7 -7 15 -10 18 -7 3 3 -2 9 -12 12 -14 6 -15 5 -6 -5z"/>
<path d="M160 2785 c0 -8 4 -15 10 -15 5 0 7 7 4 15 -4 8 -8 15 -10 15 -2 0
-4 -7 -4 -15z"/>
<path d="M337 2484 c5 -13 3 -15 -7 -9 -9 5 -11 4 -6 -3 4 -7 1 -12 -6 -12
-10 0 -10 -2 1 -9 11 -7 11 -9 0 -14 -9 -3 -10 -6 -2 -6 22 -2 42 52 23 64 -6
4 -7 -1 -3 -11z"/>
<path d="M5625 2250 c4 -6 11 -8 16 -5 14 9 11 15 -7 15 -8 0 -12 -5 -9 -10z"/>
<path d="M385 2130 c3 -5 11 -10 16 -10 6 0 7 5 4 10 -3 6 -11 10 -16 10 -6 0
-7 -4 -4 -10z"/>
<path d="M5740 2022 c0 -6 -6 -9 -14 -6 -17 7 -36 -44 -26 -71 4 -11 6 -28 4
-37 -1 -10 2 -18 6 -18 5 0 16 -3 24 -6 11 -4 28 7 51 31 27 30 32 42 24 56
-5 11 -15 19 -21 19 -6 0 -19 10 -29 22 -11 11 -19 16 -19 10z"/>
<path d="M397 2009 c7 -7 15 -10 18 -7 3 3 -2 9 -12 12 -14 6 -15 5 -6 -5z"/>
<path d="M390 1980 c-8 -5 -12 -11 -9 -14 2 -3 11 -1 19 4 8 5 12 11 9 14 -2
3 -11 1 -19 -4z"/>
<path d="M5442 1663 c-6 -2 -9 -10 -6 -16 5 -8 3 -8 -6 0 -11 10 -16 9 -26 -5
-46 -60 51 -187 105 -138 10 9 21 13 26 9 4 -5 5 -3 2 4 -4 6 -2 13 5 15 6 2
12 21 13 42 1 34 -1 37 -22 31 -13 -3 -23 -1 -23 5 0 6 -5 8 -10 5 -6 -4 -9
-3 -8 2 3 9 -24 53 -32 52 -3 0 -11 -3 -18 -6z"/>
<path d="M5486 1661 c-3 -4 6 -19 21 -32 14 -13 23 -18 18 -10 -6 10 -2 11 15
6 l23 -7 -20 21 c-13 14 -26 19 -38 15 -13 -5 -16 -4 -11 4 4 7 5 12 2 12 -3
0 -7 -4 -10 -9z"/>
<path d="M306 1633 c-6 -14 -5 -15 5 -6 7 7 10 15 7 18 -3 3 -9 -2 -12 -12z"/>
<path d="M5325 1630 c-11 -17 5 -32 21 -19 7 6 11 15 8 20 -7 12 -21 11 -29
-1z"/>
<path d="M260 1545 c0 -8 4 -15 10 -15 5 0 7 7 4 15 -4 8 -8 15 -10 15 -2 0
-4 -7 -4 -15z"/>
<path d="M5650 1360 c0 -5 -5 -9 -11 -7 -6 1 -15 -8 -19 -20 -13 -32 20 -59
49 -41 12 7 19 19 16 26 -3 7 0 10 5 7 17 -10 11 4 -10 25 -22 22 -30 25 -30
10z"/>
<path d="M5216 1333 c-6 -16 10 -53 22 -53 5 0 17 6 27 14 16 11 17 17 7 29
-18 22 -50 27 -56 10z"/>
<path d="M5745 1320 c3 -5 8 -10 11 -10 2 0 4 5 4 10 0 6 -5 10 -11 10 -5 0
-7 -4 -4 -10z"/>
<path d="M5394 1266 c-3 -9 -10 -14 -14 -11 -12 8 -38 -28 -36 -52 1 -24 43
-66 60 -60 6 2 16 -2 21 -10 15 -20 45 5 45 37 1 58 -6 74 -37 93 -29 17 -34
17 -39 3z"/>
<path d="M5189 1229 c-6 -4 -8 -12 -4 -19 5 -9 4 -11 -4 -6 -8 5 -11 -2 -9
-23 1 -17 6 -31 10 -31 4 0 8 -7 8 -15 0 -8 5 -15 11 -15 5 0 8 -4 5 -9 -3 -5
0 -11 8 -14 56 -22 109 82 65 126 -21 20 -34 23 -23 5 6 -10 4 -10 -7 -2 -16
13 -43 14 -60 3z"/>
<path d="M5504 1165 c-9 -22 5 -38 22 -24 18 15 18 25 -1 33 -9 3 -18 -1 -21
-9z"/>
<path d="M5614 1126 c-15 -16 -13 -46 3 -46 7 0 13 -4 13 -10 0 -15 15 -12 39
8 30 24 19 61 -18 60 -14 -1 -31 -6 -37 -12z"/>
<path d="M5003 1009 c-30 -9 -31 -11 -22 -39 11 -29 40 -47 59 -35 6 4 8 11 4
16 -3 5 0 8 8 7 8 -2 12 5 10 17 -6 33 -24 43 -59 34z m41 -7 c3 -5 -1 -9 -9
-9 -8 0 -12 4 -9 9 3 4 7 8 9 8 2 0 6 -4 9 -8z"/>
<path d="M5250 1000 c0 -11 6 -20 14 -20 20 0 28 27 10 34 -23 9 -24 8 -24
-14z"/>
<path d="M5096 992 c-9 -14 9 -31 23 -23 7 5 10 14 7 20 -8 13 -23 14 -30 3z"/>
<path d="M5353 989 c-13 -4 -23 -13 -23 -19 0 -6 4 -9 9 -6 4 3 6 -6 3 -21 -4
-19 -2 -24 8 -18 7 4 16 2 20 -5 6 -9 13 -7 29 9 25 25 24 39 -5 57 -12 8 -27
9 -41 3z"/>
<path d="M4887 973 c-12 -11 -8 -23 8 -23 8 0 15 7 15 15 0 16 -12 20 -23 8z"/>
<path d="M4832 950 c5 -24 38 -25 38 -1 0 14 -6 19 -20 18 -13 -1 -19 -7 -18
-17z"/>
<path d="M5324 809 c-3 -6 -1 -16 5 -22 9 -9 14 -8 21 3 9 15 4 30 -10 30 -5
0 -12 -5 -16 -11z"/>
<path d="M1318 804 c-4 -3 -4 -13 -1 -22 4 -9 2 -13 -4 -9 -7 4 -10 0 -8 -10
1 -10 -3 -24 -9 -32 -8 -11 -8 -13 2 -7 7 4 12 2 12 -6 0 -8 5 -6 11 5 6 9 14
15 18 13 4 -3 7 8 7 24 -1 30 -17 55 -28 44z m19 -35 c-2 -10 -8 -24 -14 -30
-13 -13 -13 7 0 29 5 6 5 17 1 24 -4 7 -3 8 4 4 7 -4 10 -16 9 -27z"/>
<path d="M5095 751 c-10 -9 -5 -39 8 -49 10 -9 17 -6 30 8 24 29 21 46 -8 46
-14 0 -28 -2 -30 -5z"/>
<path d="M4745 693 c9 -36 9 -37 34 -21 35 22 21 48 -26 48 -12 0 -14 -6 -8
-27z"/>
<path d="M5410 690 c0 -5 5 -10 11 -10 5 0 7 5 4 10 -3 6 -8 10 -11 10 -2 0
-4 -4 -4 -10z"/>
<path d="M4900 680 c0 -5 5 -10 10 -10 6 0 10 5 10 10 0 6 -4 10 -10 10 -5 0
-10 -4 -10 -10z"/>
<path d="M4400 665 c-10 -12 -9 -16 3 -21 17 -6 37 2 37 16 0 15 -29 19 -40 5z"/>
<path d="M5094 666 c-6 -16 2 -36 16 -36 15 0 18 25 4 38 -12 11 -15 10 -20
-2z"/>
<path d="M5632 656 c4 -27 40 -29 44 -1 2 15 -3 20 -22 21 -20 2 -25 -2 -22
-20z"/>
<path d="M5445 660 c-3 -5 -1 -10 4 -10 6 0 11 5 11 10 0 6 -2 10 -4 10 -3 0
-8 -4 -11 -10z"/>
<path d="M4330 610 c0 -5 7 -10 16 -10 8 0 12 5 9 10 -3 6 -10 10 -16 10 -5 0
-9 -4 -9 -10z"/>
<path d="M4965 580 c3 -5 10 -10 16 -10 5 0 9 5 9 10 0 6 -7 10 -16 10 -8 0
-12 -4 -9 -10z"/>
<path d="M4195 570 c-8 -13 -1 -24 14 -19 6 3 7 10 2 18 -6 10 -10 10 -16 1z"/>
<path d="M4616 562 c-9 -15 6 -50 21 -48 25 4 33 28 15 43 -20 15 -29 16 -36
5z"/>
<path d="M4372 543 c-6 -2 -10 -9 -7 -14 4 -5 0 -6 -8 -3 -14 5 -47 -19 -47
-34 0 -12 41 -43 60 -47 10 -2 27 -8 38 -14 16 -8 21 -6 32 14 10 20 10 30 -6
64 -18 38 -32 46 -62 34z"/>
<path d="M5181 521 c-8 -5 -3 -11 14 -19 20 -9 25 -9 25 2 0 17 -23 27 -39 17z"/>
<path d="M4760 420 c0 -5 7 -10 15 -10 8 0 15 5 15 10 0 6 -7 10 -15 10 -8 0
-15 -4 -15 -10z"/>
<path d="M4722 411 c2 -7 7 -12 11 -12 12 1 9 15 -3 20 -7 2 -11 -2 -8 -8z"/>
<path d="M5260 412 c-27 -8 -40 -33 -29 -54 5 -10 15 -15 21 -12 7 4 8 3 4 -4
-4 -7 -2 -12 4 -12 6 0 8 -4 5 -10 -3 -5 1 -10 9 -10 9 0 16 -5 16 -11 0 -6 7
-3 16 5 11 11 14 25 9 46 -5 25 -3 30 11 30 15 0 14 3 -6 17 -28 20 -38 22
-60 15z m31 -65 c-10 -9 -11 -8 -5 6 3 10 9 15 12 12 3 -3 0 -11 -7 -18z"/>
<path d="M4235 330 c-3 -5 -1 -10 4 -10 6 0 11 5 11 10 0 6 -2 10 -4 10 -3 0
-8 -4 -11 -10z"/>
<path d="M4357 213 c-13 -12 -7 -23 11 -23 10 0 19 7 19 15 0 15 -18 20 -30 8z"/>
</g>
</svg>
